0
SECTION
2
ENTITIES
0
3DFACE
   8
0
   10
0.000000
20
0.000000
30
-200.000000
11
25.000000
21
0.000000
31
-170.000000
12
26.500000
22
26.500000
32
-146.000000
13
0.000000
23
25.000000
33
-170.000000
0
LINE
8
0
10
0.000000
20
0.000000
30
-200.000000
11
25.000000
21
0.000000
31
-170.000000
0
LINE
8
0
10
25.000000
20
0.000000
30
-170.000000
11
26.500000
21
26.500000
31
-146.000000
0
LINE
8
0
10
26.500000
20
26.500000
30
-146.000000
11
0.000000
21
25.000000
31
-170.000000
0
LINE
8
0
10
0.000000
20
25.000000
30
-170.000000
11
0.000000
21
0.000000
31
-200.000000
0
3DFACE
   8
0
   10
0.000000
20
25.000000
30
-170.000000
11
26.500000
21
26.500000
31
-146.000000
12
28.000000
22
53.000000
32
-122.000000
13
0.000000
23
50.000000
33
-140.000000
0
LINE
8
0
10
0.000000
20
25.000000
30
-170.000000
11
26.500000
21
26.500000
31
-146.000000
0
LINE
8
0
10
26.500000
20
26.500000
30
-146.000000
11
28.000000
21
53.000000
31
-122.000000
0
LINE
8
0
10
28.000000
20
53.000000
30
-122.000000
11
0.000000
21
50.000000
31
-140.000000
0
LINE
8
0
10
0.000000
20
50.000000
30
-140.000000
11
0.000000
21
25.000000
31
-170.000000
0
3DFACE
   8
0
   10
0.000000
20
50.000000
30
-140.000000
11
28.000000
21
53.000000
31
-122.000000
12
29.500000
22
79.500000
32
-98.000000
13
0.000000
23
75.000000
33
-110.000000
0
LINE
8
0
10
0.000000
20
50.000000
30
-140.000000
11
28.000000
21
53.000000
31
-122.000000
0
LINE
8
0
10
28.000000
20
53.000000
30
-122.000000
11
29.500000
21
79.500000
31
-98.000000
0
LINE
8
0
10
29.500000
20
79.500000
30
-98.000000
11
0.000000
21
75.000000
31
-110.000000
0
LINE
8
0
10
0.000000
20
75.000000
30
-110.000000
11
0.000000
21
50.000000
31
-140.000000
0
3DFACE
   8
0
   10
0.000000
20
75.000000
30
-110.000000
11
29.500000
21
79.500000
31
-98.000000
12
31.000000
22
106.000000
32
-74.000000
13
0.000000
23
100.000000
33
-80.000000
0
LINE
8
0
10
0.000000
20
75.000000
30
-110.000000
11
29.500000
21
79.500000
31
-98.000000
0
LINE
8
0
10
29.500000
20
79.500000
30
-98.000000
11
31.000000
21
106.000000
31
-74.000000
0
LINE
8
0
10
31.000000
20
106.000000
30
-74.000000
11
0.000000
21
100.000000
31
-80.000000
0
LINE
8
0
10
0.000000
20
100.000000
30
-80.000000
11
0.000000
21
75.000000
31
-110.000000
0
3DFACE
   8
0
   10
0.000000
20
100.000000
30
-80.000000
11
31.000000
21
106.000000
31
-74.000000
12
32.500000
22
132.500000
32
-50.000000
13
0.000000
23
125.000000
33
-50.000000
0
LINE
8
0
10
0.000000
20
100.000000
30
-80.000000
11
31.000000
21
106.000000
31
-74.000000
0
LINE
8
0
10
31.000000
20
106.000000
30
-74.000000
11
32.500000
21
132.500000
31
-50.000000
0
LINE
8
0
10
32.500000
20
132.500000
30
-50.000000
11
0.000000
21
125.000000
31
-50.000000
0
LINE
8
0
10
0.000000
20
125.000000
30
-50.000000
11
0.000000
21
100.000000
31
-80.000000
0
3DFACE
   8
0
   10
0.000000
20
125.000000
30
-50.000000
11
32.500000
21
132.500000
31
-50.000000
12
34.000000
22
159.000000
32
-26.000000
13
0.000000
23
150.000000
33
-20.000000
0
LINE
8
0
10
0.000000
20
125.000000
30
-50.000000
11
32.500000
21
132.500000
31
-50.000000
0
LINE
8
0
10
32.500000
20
132.500000
30
-50.000000
11
34.000000
21
159.000000
31
-26.000000
0
LINE
8
0
10
34.000000
20
159.000000
30
-26.000000
11
0.000000
21
150.000000
31
-20.000000
0
LINE
8
0
10
0.000000
20
150.000000
30
-20.000000
11
0.000000
21
125.000000
31
-50.000000
0
3DFACE
   8
0
   10
0.000000
20
150.000000
30
-20.000000
11
34.000000
21
159.000000
31
-26.000000
12
35.500000
22
185.500000
32
-2.000000
13
0.000000
23
175.000000
33
10.000000
0
LINE
8
0
10
0.000000
20
150.000000
30
-20.000000
11
34.000000
21
159.000000
31
-26.000000
0
LINE
8
0
10
34.000000
20
159.000000
30
-26.000000
11
35.500000
21
185.500000
31
-2.000000
0
LINE
8
0
10
35.500000
20
185.500000
30
-2.000000
11
0.000000
21
175.000000
31
10.000000
0
LINE
8
0
10
0.000000
20
175.000000
30
10.000000
11
0.000000
21
150.000000
31
-20.000000
0
3DFACE
   8
0
   10
0.000000
20
175.000000
30
10.000000
11
35.500000
21
185.500000
31
-2.000000
12
37.000000
22
212.000000
32
22.000000
13
0.000000
23
200.000000
33
40.000000
0
LINE
8
0
10
0.000000
20
175.000000
30
10.000000
11
35.500000
21
185.500000
31
-2.000000
0
LINE
8
0
10
35.500000
20
185.500000
30
-2.000000
11
37.000000
21
212.000000
31
22.000000
0
LINE
8
0
10
37.000000
20
212.000000
30
22.000000
11
0.000000
21
200.000000
31
40.000000
0
LINE
8
0
10
0.000000
20
200.000000
30
40.000000
11
0.000000
21
175.000000
31
10.000000
0
3DFACE
   8
0
   10
0.000000
20
200.000000
30
40.000000
11
37.000000
21
212.000000
31
22.000000
12
38.500000
22
238.500000
32
46.000000
13
0.000000
23
225.000000
33
70.000000
0
LINE
8
0
10
0.000000
20
200.000000
30
40.000000
11
37.000000
21
212.000000
31
22.000000
0
LINE
8
0
10
37.000000
20
212.000000
30
22.000000
11
38.500000
21
238.500000
31
46.000000
0
LINE
8
0
10
38.500000
20
238.500000
30
46.000000
11
0.000000
21
225.000000
31
70.000000
0
LINE
8
0
10
0.000000
20
225.000000
30
70.000000
11
0.000000
21
200.000000
31
40.000000
0
3DFACE
   8
0
   10
0.000000
20
225.000000
30
70.000000
11
38.500000
21
238.500000
31
46.000000
12
40.000000
22
265.000000
32
70.000000
13
0.000000
23
250.000000
33
100.000000
0
LINE
8
0
10
0.000000
20
225.000000
30
70.000000
11
38.500000
21
238.500000
31
46.000000
0
LINE
8
0
10
38.500000
20
238.500000
30
46.000000
11
40.000000
21
265.000000
31
70.000000
0
LINE
8
0
10
40.000000
20
265.000000
30
70.000000
11
0.000000
21
250.000000
31
100.000000
0
LINE
8
0
10
0.000000
20
250.000000
30
100.000000
11
0.000000
21
225.000000
31
70.000000
0
3DFACE
   8
0
   10
0.000000
20
250.000000
30
100.000000
11
40.000000
21
265.000000
31
70.000000
12
41.500000
22
291.500000
32
94.000000
13
0.000000
23
275.000000
33
130.000000
0
LINE
8
0
10
0.000000
20
250.000000
30
100.000000
11
40.000000
21
265.000000
31
70.000000
0
LINE
8
0
10
40.000000
20
265.000000
30
70.000000
11
41.500000
21
291.500000
31
94.000000
0
LINE
8
0
10
41.500000
20
291.500000
30
94.000000
11
0.000000
21
275.000000
31
130.000000
0
LINE
8
0
10
0.000000
20
275.000000
30
130.000000
11
0.000000
21
250.000000
31
100.000000
0
3DFACE
   8
0
   10
0.000000
20
275.000000
30
130.000000
11
41.500000
21
291.500000
31
94.000000
12
43.000000
22
318.000000
32
118.000000
13
0.000000
23
300.000000
33
160.000000
0
LINE
8
0
10
0.000000
20
275.000000
30
130.000000
11
41.500000
21
291.500000
31
94.000000
0
LINE
8
0
10
41.500000
20
291.500000
30
94.000000
11
43.000000
21
318.000000
31
118.000000
0
LINE
8
0
10
43.000000
20
318.000000
30
118.000000
11
0.000000
21
300.000000
31
160.000000
0
LINE
8
0
10
0.000000
20
300.000000
30
160.000000
11
0.000000
21
275.000000
31
130.000000
0
3DFACE
   8
0
   10
0.000000
20
300.000000
30
160.000000
11
43.000000
21
318.000000
31
118.000000
12
44.500000
22
344.500000
32
142.000000
13
0.000000
23
325.000000
33
190.000000
0
LINE
8
0
10
0.000000
20
300.000000
30
160.000000
11
43.000000
21
318.000000
31
118.000000
0
LINE
8
0
10
43.000000
20
318.000000
30
118.000000
11
44.500000
21
344.500000
31
142.000000
0
LINE
8
0
10
44.500000
20
344.500000
30
142.000000
11
0.000000
21
325.000000
31
190.000000
0
LINE
8
0
10
0.000000
20
325.000000
30
190.000000
11
0.000000
21
300.000000
31
160.000000
0
3DFACE
   8
0
   10
0.000000
20
325.000000
30
190.000000
11
44.500000
21
344.500000
31
142.000000
12
46.000000
22
371.000000
32
166.000000
13
0.000000
23
350.000000
33
220.000000
0
LINE
8
0
10
0.000000
20
325.000000
30
190.000000
11
44.500000
21
344.500000
31
142.000000
0
LINE
8
0
10
44.500000
20
344.500000
30
142.000000
11
46.000000
21
371.000000
31
166.000000
0
LINE
8
0
10
46.000000
20
371.000000
30
166.000000
11
0.000000
21
350.000000
31
220.000000
0
LINE
8
0
10
0.000000
20
350.000000
30
220.000000
11
0.000000
21
325.000000
31
190.000000
0
3DFACE
   8
0
   10
0.000000
20
350.000000
30
220.000000
11
46.000000
21
371.000000
31
166.000000
12
47.500000
22
397.500000
32
190.000000
13
0.000000
23
375.000000
33
250.000000
0
LINE
8
0
10
0.000000
20
350.000000
30
220.000000
11
46.000000
21
371.000000
31
166.000000
0
LINE
8
0
10
46.000000
20
371.000000
30
166.000000
11
47.500000
21
397.500000
31
190.000000
0
LINE
8
0
10
47.500000
20
397.500000
30
190.000000
11
0.000000
21
375.000000
31
250.000000
0
LINE
8
0
10
0.000000
20
375.000000
30
250.000000
11
0.000000
21
350.000000
31
220.000000
0
3DFACE
   8
0
   10
25.000000
20
0.000000
30
-170.000000
11
50.000000
21
0.000000
31
-140.000000
12
53.000000
22
28.000000
32
-122.000000
13
26.500000
23
26.500000
33
-146.000000
0
LINE
8
0
10
25.000000
20
0.000000
30
-170.000000
11
50.000000
21
0.000000
31
-140.000000
0
LINE
8
0
10
50.000000
20
0.000000
30
-140.000000
11
53.000000
21
28.000000
31
-122.000000
0
LINE
8
0
10
53.000000
20
28.000000
30
-122.000000
11
26.500000
21
26.500000
31
-146.000000
0
LINE
8
0
10
26.500000
20
26.500000
30
-146.000000
11
25.000000
21
0.000000
31
-170.000000
0
3DFACE
   8
0
   10
26.500000
20
26.500000
30
-146.000000
11
53.000000
21
28.000000
31
-122.000000
12
56.000000
22
56.000000
32
-104.000000
13
28.000000
23
53.000000
33
-122.000000
0
LINE
8
0
10
26.500000
20
26.500000
30
-146.000000
11
53.000000
21
28.000000
31
-122.000000
0
LINE
8
0
10
53.000000
20
28.000000
30
-122.000000
11
56.000000
21
56.000000
31
-104.000000
0
LINE
8
0
10
56.000000
20
56.000000
30
-104.000000
11
28.000000
21
53.000000
31
-122.000000
0
LINE
8
0
10
28.000000
20
53.000000
30
-122.000000
11
26.500000
21
26.500000
31
-146.000000
0
3DFACE
   8
0
   10
28.000000
20
53.000000
30
-122.000000
11
56.000000
21
56.000000
31
-104.000000
12
59.000000
22
84.000000
32
-86.000000
13
29.500000
23
79.500000
33
-98.000000
0
LINE
8
0
10
28.000000
20
53.000000
30
-122.000000
11
56.000000
21
56.000000
31
-104.000000
0
LINE
8
0
10
56.000000
20
56.000000
30
-104.000000
11
59.000000
21
84.000000
31
-86.000000
0
LINE
8
0
10
59.000000
20
84.000000
30
-86.000000
11
29.500000
21
79.500000
31
-98.000000
0
LINE
8
0
10
29.500000
20
79.500000
30
-98.000000
11
28.000000
21
53.000000
31
-122.000000
0
3DFACE
   8
0
   10
29.500000
20
79.500000
30
-98.000000
11
59.000000
21
84.000000
31
-86.000000
12
62.000000
22
112.000000
32
-68.000000
13
31.000000
23
106.000000
33
-74.000000
0
LINE
8
0
10
29.500000
20
79.500000
30
-98.000000
11
59.000000
21
84.000000
31
-86.000000
0
LINE
8
0
10
59.000000
20
84.000000
30
-86.000000
11
62.000000
21
112.000000
31
-68.000000
0
LINE
8
0
10
62.000000
20
112.000000
30
-68.000000
11
31.000000
21
106.000000
31
-74.000000
0
LINE
8
0
10
31.000000
20
106.000000
30
-74.000000
11
29.500000
21
79.500000
31
-98.000000
0
3DFACE
   8
0
   10
31.000000
20
106.000000
30
-74.000000
11
62.000000
21
112.000000
31
-68.000000
12
65.000000
22
140.000000
32
-50.000000
13
32.500000
23
132.500000
33
-50.000000
0
LINE
8
0
10
31.000000
20
106.000000
30
-74.000000
11
62.000000
21
112.000000
31
-68.000000
0
LINE
8
0
10
62.000000
20
112.000000
30
-68.000000
11
65.000000
21
140.000000
31
-50.000000
0
LINE
8
0
10
65.000000
20
140.000000
30
-50.000000
11
32.500000
21
132.500000
31
-50.000000
0
LINE
8
0
10
32.500000
20
132.500000
30
-50.000000
11
31.000000
21
106.000000
31
-74.000000
0
3DFACE
   8
0
   10
32.500000
20
132.500000
30
-50.000000
11
65.000000
21
140.000000
31
-50.000000
12
68.000000
22
168.000000
32
-32.000000
13
34.000000
23
159.000000
33
-26.000000
0
LINE
8
0
10
32.500000
20
132.500000
30
-50.000000
11
65.000000
21
140.000000
31
-50.000000
0
LINE
8
0
10
65.000000
20
140.000000
30
-50.000000
11
68.000000
21
168.000000
31
-32.000000
0
LINE
8
0
10
68.000000
20
168.000000
30
-32.000000
11
34.000000
21
159.000000
31
-26.000000
0
LINE
8
0
10
34.000000
20
159.000000
30
-26.000000
11
32.500000
21
132.500000
31
-50.000000
0
3DFACE
   8
0
   10
34.000000
20
159.000000
30
-26.000000
11
68.000000
21
168.000000
31
-32.000000
12
71.000000
22
196.000000
32
-14.000000
13
35.500000
23
185.500000
33
-2.000000
0
LINE
8
0
10
34.000000
20
159.000000
30
-26.000000
11
68.000000
21
168.000000
31
-32.000000
0
LINE
8
0
10
68.000000
20
168.000000
30
-32.000000
11
71.000000
21
196.000000
31
-14.000000
0
LINE
8
0
10
71.000000
20
196.000000
30
-14.000000
11
35.500000
21
185.500000
31
-2.000000
0
LINE
8
0
10
35.500000
20
185.500000
30
-2.000000
11
34.000000
21
159.000000
31
-26.000000
0
3DFACE
   8
0
   10
35.500000
20
185.500000
30
-2.000000
11
71.000000
21
196.000000
31
-14.000000
12
74.000000
22
224.000000
32
4.000000
13
37.000000
23
212.000000
33
22.000000
0
LINE
8
0
10
35.500000
20
185.500000
30
-2.000000
11
71.000000
21
196.000000
31
-14.000000
0
LINE
8
0
10
71.000000
20
196.000000
30
-14.000000
11
74.000000
21
224.000000
31
4.000000
0
LINE
8
0
10
74.000000
20
224.000000
30
4.000000
11
37.000000
21
212.000000
31
22.000000
0
LINE
8
0
10
37.000000
20
212.000000
30
22.000000
11
35.500000
21
185.500000
31
-2.000000
0
3DFACE
   8
0
   10
37.000000
20
212.000000
30
22.000000
11
74.000000
21
224.000000
31
4.000000
12
77.000000
22
252.000000
32
22.000000
13
38.500000
23
238.500000
33
46.000000
0
LINE
8
0
10
37.000000
20
212.000000
30
22.000000
11
74.000000
21
224.000000
31
4.000000
0
LINE
8
0
10
74.000000
20
224.000000
30
4.000000
11
77.000000
21
252.000000
31
22.000000
0
LINE
8
0
10
77.000000
20
252.000000
30
22.000000
11
38.500000
21
238.500000
31
46.000000
0
LINE
8
0
10
38.500000
20
238.500000
30
46.000000
11
37.000000
21
212.000000
31
22.000000
0
3DFACE
   8
0
   10
38.500000
20
238.500000
30
46.000000
11
77.000000
21
252.000000
31
22.000000
12
80.000000
22
280.000000
32
40.000000
13
40.000000
23
265.000000
33
70.000000
0
LINE
8
0
10
38.500000
20
238.500000
30
46.000000
11
77.000000
21
252.000000
31
22.000000
0
LINE
8
0
10
77.000000
20
252.000000
30
22.000000
11
80.000000
21
280.000000
31
40.000000
0
LINE
8
0
10
80.000000
20
280.000000
30
40.000000
11
40.000000
21
265.000000
31
70.000000
0
LINE
8
0
10
40.000000
20
265.000000
30
70.000000
11
38.500000
21
238.500000
31
46.000000
0
3DFACE
   8
0
   10
40.000000
20
265.000000
30
70.000000
11
80.000000
21
280.000000
31
40.000000
12
83.000000
22
308.000000
32
58.000000
13
41.500000
23
291.500000
33
94.000000
0
LINE
8
0
10
40.000000
20
265.000000
30
70.000000
11
80.000000
21
280.000000
31
40.000000
0
LINE
8
0
10
80.000000
20
280.000000
30
40.000000
11
83.000000
21
308.000000
31
58.000000
0
LINE
8
0
10
83.000000
20
308.000000
30
58.000000
11
41.500000
21
291.500000
31
94.000000
0
LINE
8
0
10
41.500000
20
291.500000
30
94.000000
11
40.000000
21
265.000000
31
70.000000
0
3DFACE
   8
0
   10
41.500000
20
291.500000
30
94.000000
11
83.000000
21
308.000000
31
58.000000
12
86.000000
22
336.000000
32
76.000000
13
43.000000
23
318.000000
33
118.000000
0
LINE
8
0
10
41.500000
20
291.500000
30
94.000000
11
83.000000
21
308.000000
31
58.000000
0
LINE
8
0
10
83.000000
20
308.000000
30
58.000000
11
86.000000
21
336.000000
31
76.000000
0
LINE
8
0
10
86.000000
20
336.000000
30
76.000000
11
43.000000
21
318.000000
31
118.000000
0
LINE
8
0
10
43.000000
20
318.000000
30
118.000000
11
41.500000
21
291.500000
31
94.000000
0
3DFACE
   8
0
   10
43.000000
20
318.000000
30
118.000000
11
86.000000
21
336.000000
31
76.000000
12
89.000000
22
364.000000
32
94.000000
13
44.500000
23
344.500000
33
142.000000
0
LINE
8
0
10
43.000000
20
318.000000
30
118.000000
11
86.000000
21
336.000000
31
76.000000
0
LINE
8
0
10
86.000000
20
336.000000
30
76.000000
11
89.000000
21
364.000000
31
94.000000
0
LINE
8
0
10
89.000000
20
364.000000
30
94.000000
11
44.500000
21
344.500000
31
142.000000
0
LINE
8
0
10
44.500000
20
344.500000
30
142.000000
11
43.000000
21
318.000000
31
118.000000
0
3DFACE
   8
0
   10
44.500000
20
344.500000
30
142.000000
11
89.000000
21
364.000000
31
94.000000
12
92.000000
22
392.000000
32
112.000000
13
46.000000
23
371.000000
33
166.000000
0
LINE
8
0
10
44.500000
20
344.500000
30
142.000000
11
89.000000
21
364.000000
31
94.000000
0
LINE
8
0
10
89.000000
20
364.000000
30
94.000000
11
92.000000
21
392.000000
31
112.000000
0
LINE
8
0
10
92.000000
20
392.000000
30
112.000000
11
46.000000
21
371.000000
31
166.000000
0
LINE
8
0
10
46.000000
20
371.000000
30
166.000000
11
44.500000
21
344.500000
31
142.000000
0
3DFACE
   8
0
   10
46.000000
20
371.000000
30
166.000000
11
92.000000
21
392.000000
31
112.000000
12
95.000000
22
420.000000
32
130.000000
13
47.500000
23
397.500000
33
190.000000
0
LINE
8
0
10
46.000000
20
371.000000
30
166.000000
11
92.000000
21
392.000000
31
112.000000
0
LINE
8
0
10
92.000000
20
392.000000
30
112.000000
11
95.000000
21
420.000000
31
130.000000
0
LINE
8
0
10
95.000000
20
420.000000
30
130.000000
11
47.500000
21
397.500000
31
190.000000
0
LINE
8
0
10
47.500000
20
397.500000
30
190.000000
11
46.000000
21
371.000000
31
166.000000
0
3DFACE
   8
0
   10
50.000000
20
0.000000
30
-140.000000
11
75.000000
21
0.000000
31
-110.000000
12
79.500000
22
29.500000
32
-98.000000
13
53.000000
23
28.000000
33
-122.000000
0
LINE
8
0
10
50.000000
20
0.000000
30
-140.000000
11
75.000000
21
0.000000
31
-110.000000
0
LINE
8
0
10
75.000000
20
0.000000
30
-110.000000
11
79.500000
21
29.500000
31
-98.000000
0
LINE
8
0
10
79.500000
20
29.500000
30
-98.000000
11
53.000000
21
28.000000
31
-122.000000
0
LINE
8
0
10
53.000000
20
28.000000
30
-122.000000
11
50.000000
21
0.000000
31
-140.000000
0
3DFACE
   8
0
   10
53.000000
20
28.000000
30
-122.000000
11
79.500000
21
29.500000
31
-98.000000
12
84.000000
22
59.000000
32
-86.000000
13
56.000000
23
56.000000
33
-104.000000
0
LINE
8
0
10
53.000000
20
28.000000
30
-122.000000
11
79.500000
21
29.500000
31
-98.000000
0
LINE
8
0
10
79.500000
20
29.500000
30
-98.000000
11
84.000000
21
59.000000
31
-86.000000
0
LINE
8
0
10
84.000000
20
59.000000
30
-86.000000
11
56.000000
21
56.000000
31
-104.000000
0
LINE
8
0
10
56.000000
20
56.000000
30
-104.000000
11
53.000000
21
28.000000
31
-122.000000
0
3DFACE
   8
0
   10
56.000000
20
56.000000
30
-104.000000
11
84.000000
21
59.000000
31
-86.000000
12
88.500000
22
88.500000
32
-74.000000
13
59.000000
23
84.000000
33
-86.000000
0
LINE
8
0
10
56.000000
20
56.000000
30
-104.000000
11
84.000000
21
59.000000
31
-86.000000
0
LINE
8
0
10
84.000000
20
59.000000
30
-86.000000
11
88.500000
21
88.500000
31
-74.000000
0
LINE
8
0
10
88.500000
20
88.500000
30
-74.000000
11
59.000000
21
84.000000
31
-86.000000
0
LINE
8
0
10
59.000000
20
84.000000
30
-86.000000
11
56.000000
21
56.000000
31
-104.000000
0
3DFACE
   8
0
   10
59.000000
20
84.000000
30
-86.000000
11
88.500000
21
88.500000
31
-74.000000
12
93.000000
22
118.000000
32
-62.000000
13
62.000000
23
112.000000
33
-68.000000
0
LINE
8
0
10
59.000000
20
84.000000
30
-86.000000
11
88.500000
21
88.500000
31
-74.000000
0
LINE
8
0
10
88.500000
20
88.500000
30
-74.000000
11
93.000000
21
118.000000
31
-62.000000
0
LINE
8
0
10
93.000000
20
118.000000
30
-62.000000
11
62.000000
21
112.000000
31
-68.000000
0
LINE
8
0
10
62.000000
20
112.000000
30
-68.000000
11
59.000000
21
84.000000
31
-86.000000
0
3DFACE
   8
0
   10
62.000000
20
112.000000
30
-68.000000
11
93.000000
21
118.000000
31
-62.000000
12
97.500000
22
147.500000
32
-50.000000
13
65.000000
23
140.000000
33
-50.000000
0
LINE
8
0
10
62.000000
20
112.000000
30
-68.000000
11
93.000000
21
118.000000
31
-62.000000
0
LINE
8
0
10
93.000000
20
118.000000
30
-62.000000
11
97.500000
21
147.500000
31
-50.000000
0
LINE
8
0
10
97.500000
20
147.500000
30
-50.000000
11
65.000000
21
140.000000
31
-50.000000
0
LINE
8
0
10
65.000000
20
140.000000
30
-50.000000
11
62.000000
21
112.000000
31
-68.000000
0
3DFACE
   8
0
   10
65.000000
20
140.000000
30
-50.000000
11
97.500000
21
147.500000
31
-50.000000
12
102.000000
22
177.000000
32
-38.000000
13
68.000000
23
168.000000
33
-32.000000
0
LINE
8
0
10
65.000000
20
140.000000
30
-50.000000
11
97.500000
21
147.500000
31
-50.000000
0
LINE
8
0
10
97.500000
20
147.500000
30
-50.000000
11
102.000000
21
177.000000
31
-38.000000
0
LINE
8
0
10
102.000000
20
177.000000
30
-38.000000
11
68.000000
21
168.000000
31
-32.000000
0
LINE
8
0
10
68.000000
20
168.000000
30
-32.000000
11
65.000000
21
140.000000
31
-50.000000
0
3DFACE
   8
0
   10
68.000000
20
168.000000
30
-32.000000
11
102.000000
21
177.000000
31
-38.000000
12
106.500000
22
206.500000
32
-26.000000
13
71.000000
23
196.000000
33
-14.000000
0
LINE
8
0
10
68.000000
20
168.000000
30
-32.000000
11
102.000000
21
177.000000
31
-38.000000
0
LINE
8
0
10
102.000000
20
177.000000
30
-38.000000
11
106.500000
21
206.500000
31
-26.000000
0
LINE
8
0
10
106.500000
20
206.500000
30
-26.000000
11
71.000000
21
196.000000
31
-14.000000
0
LINE
8
0
10
71.000000
20
196.000000
30
-14.000000
11
68.000000
21
168.000000
31
-32.000000
0
3DFACE
   8
0
   10
71.000000
20
196.000000
30
-14.000000
11
106.500000
21
206.500000
31
-26.000000
12
111.000000
22
236.000000
32
-14.000000
13
74.000000
23
224.000000
33
4.000000
0
LINE
8
0
10
71.000000
20
196.000000
30
-14.000000
11
106.500000
21
206.500000
31
-26.000000
0
LINE
8
0
10
106.500000
20
206.500000
30
-26.000000
11
111.000000
21
236.000000
31
-14.000000
0
LINE
8
0
10
111.000000
20
236.000000
30
-14.000000
11
74.000000
21
224.000000
31
4.000000
0
LINE
8
0
10
74.000000
20
224.000000
30
4.000000
11
71.000000
21
196.000000
31
-14.000000
0
3DFACE
   8
0
   10
74.000000
20
224.000000
30
4.000000
11
111.000000
21
236.000000
31
-14.000000
12
115.500000
22
265.500000
32
-2.000000
13
77.000000
23
252.000000
33
22.000000
0
LINE
8
0
10
74.000000
20
224.000000
30
4.000000
11
111.000000
21
236.000000
31
-14.000000
0
LINE
8
0
10
111.000000
20
236.000000
30
-14.000000
11
115.500000
21
265.500000
31
-2.000000
0
LINE
8
0
10
115.500000
20
265.500000
30
-2.000000
11
77.000000
21
252.000000
31
22.000000
0
LINE
8
0
10
77.000000
20
252.000000
30
22.000000
11
74.000000
21
224.000000
31
4.000000
0
3DFACE
   8
0
   10
77.000000
20
252.000000
30
22.000000
11
115.500000
21
265.500000
31
-2.000000
12
120.000000
22
295.000000
32
10.000000
13
80.000000
23
280.000000
33
40.000000
0
LINE
8
0
10
77.000000
20
252.000000
30
22.000000
11
115.500000
21
265.500000
31
-2.000000
0
LINE
8
0
10
115.500000
20
265.500000
30
-2.000000
11
120.000000
21
295.000000
31
10.000000
0
LINE
8
0
10
120.000000
20
295.000000
30
10.000000
11
80.000000
21
280.000000
31
40.000000
0
LINE
8
0
10
80.000000
20
280.000000
30
40.000000
11
77.000000
21
252.000000
31
22.000000
0
3DFACE
   8
0
   10
80.000000
20
280.000000
30
40.000000
11
120.000000
21
295.000000
31
10.000000
12
124.500000
22
324.500000
32
22.000000
13
83.000000
23
308.000000
33
58.000000
0
LINE
8
0
10
80.000000
20
280.000000
30
40.000000
11
120.000000
21
295.000000
31
10.000000
0
LINE
8
0
10
120.000000
20
295.000000
30
10.000000
11
124.500000
21
324.500000
31
22.000000
0
LINE
8
0
10
124.500000
20
324.500000
30
22.000000
11
83.000000
21
308.000000
31
58.000000
0
LINE
8
0
10
83.000000
20
308.000000
30
58.000000
11
80.000000
21
280.000000
31
40.000000
0
3DFACE
   8
0
   10
83.000000
20
308.000000
30
58.000000
11
124.500000
21
324.500000
31
22.000000
12
129.000000
22
354.000000
32
34.000000
13
86.000000
23
336.000000
33
76.000000
0
LINE
8
0
10
83.000000
20
308.000000
30
58.000000
11
124.500000
21
324.500000
31
22.000000
0
LINE
8
0
10
124.500000
20
324.500000
30
22.000000
11
129.000000
21
354.000000
31
34.000000
0
LINE
8
0
10
129.000000
20
354.000000
30
34.000000
11
86.000000
21
336.000000
31
76.000000
0
LINE
8
0
10
86.000000
20
336.000000
30
76.000000
11
83.000000
21
308.000000
31
58.000000
0
3DFACE
   8
0
   10
86.000000
20
336.000000
30
76.000000
11
129.000000
21
354.000000
31
34.000000
12
133.500000
22
383.500000
32
46.000000
13
89.000000
23
364.000000
33
94.000000
0
LINE
8
0
10
86.000000
20
336.000000
30
76.000000
11
129.000000
21
354.000000
31
34.000000
0
LINE
8
0
10
129.000000
20
354.000000
30
34.000000
11
133.500000
21
383.500000
31
46.000000
0
LINE
8
0
10
133.500000
20
383.500000
30
46.000000
11
89.000000
21
364.000000
31
94.000000
0
LINE
8
0
10
89.000000
20
364.000000
30
94.000000
11
86.000000
21
336.000000
31
76.000000
0
3DFACE
   8
0
   10
89.000000
20
364.000000
30
94.000000
11
133.500000
21
383.500000
31
46.000000
12
138.000000
22
413.000000
32
58.000000
13
92.000000
23
392.000000
33
112.000000
0
LINE
8
0
10
89.000000
20
364.000000
30
94.000000
11
133.500000
21
383.500000
31
46.000000
0
LINE
8
0
10
133.500000
20
383.500000
30
46.000000
11
138.000000
21
413.000000
31
58.000000
0
LINE
8
0
10
138.000000
20
413.000000
30
58.000000
11
92.000000
21
392.000000
31
112.000000
0
LINE
8
0
10
92.000000
20
392.000000
30
112.000000
11
89.000000
21
364.000000
31
94.000000
0
3DFACE
   8
0
   10
92.000000
20
392.000000
30
112.000000
11
138.000000
21
413.000000
31
58.000000
12
142.500000
22
442.500000
32
70.000000
13
95.000000
23
420.000000
33
130.000000
0
LINE
8
0
10
92.000000
20
392.000000
30
112.000000
11
138.000000
21
413.000000
31
58.000000
0
LINE
8
0
10
138.000000
20
413.000000
30
58.000000
11
142.500000
21
442.500000
31
70.000000
0
LINE
8
0
10
142.500000
20
442.500000
30
70.000000
11
95.000000
21
420.000000
31
130.000000
0
LINE
8
0
10
95.000000
20
420.000000
30
130.000000
11
92.000000
21
392.000000
31
112.000000
0
3DFACE
   8
0
   10
75.000000
20
0.000000
30
-110.000000
11
100.000000
21
0.000000
31
-80.000000
12
106.000000
22
31.000000
32
-74.000000
13
79.500000
23
29.500000
33
-98.000000
0
LINE
8
0
10
75.000000
20
0.000000
30
-110.000000
11
100.000000
21
0.000000
31
-80.000000
0
LINE
8
0
10
100.000000
20
0.000000
30
-80.000000
11
106.000000
21
31.000000
31
-74.000000
0
LINE
8
0
10
106.000000
20
31.000000
30
-74.000000
11
79.500000
21
29.500000
31
-98.000000
0
LINE
8
0
10
79.500000
20
29.500000
30
-98.000000
11
75.000000
21
0.000000
31
-110.000000
0
3DFACE
   8
0
   10
79.500000
20
29.500000
30
-98.000000
11
106.000000
21
31.000000
31
-74.000000
12
112.000000
22
62.000000
32
-68.000000
13
84.000000
23
59.000000
33
-86.000000
0
LINE
8
0
10
79.500000
20
29.500000
30
-98.000000
11
106.000000
21
31.000000
31
-74.000000
0
LINE
8
0
10
106.000000
20
31.000000
30
-74.000000
11
112.000000
21
62.000000
31
-68.000000
0
LINE
8
0
10
112.000000
20
62.000000
30
-68.000000
11
84.000000
21
59.000000
31
-86.000000
0
LINE
8
0
10
84.000000
20
59.000000
30
-86.000000
11
79.500000
21
29.500000
31
-98.000000
0
3DFACE
   8
0
   10
84.000000
20
59.000000
30
-86.000000
11
112.000000
21
62.000000
31
-68.000000
12
118.000000
22
93.000000
32
-62.000000
13
88.500000
23
88.500000
33
-74.000000
0
LINE
8
0
10
84.000000
20
59.000000
30
-86.000000
11
112.000000
21
62.000000
31
-68.000000
0
LINE
8
0
10
112.000000
20
62.000000
30
-68.000000
11
118.000000
21
93.000000
31
-62.000000
0
LINE
8
0
10
118.000000
20
93.000000
30
-62.000000
11
88.500000
21
88.500000
31
-74.000000
0
LINE
8
0
10
88.500000
20
88.500000
30
-74.000000
11
84.000000
21
59.000000
31
-86.000000
0
3DFACE
   8
0
   10
88.500000
20
88.500000
30
-74.000000
11
118.000000
21
93.000000
31
-62.000000
12
124.000000
22
124.000000
32
-56.000000
13
93.000000
23
118.000000
33
-62.000000
0
LINE
8
0
10
88.500000
20
88.500000
30
-74.000000
11
118.000000
21
93.000000
31
-62.000000
0
LINE
8
0
10
118.000000
20
93.000000
30
-62.000000
11
124.000000
21
124.000000
31
-56.000000
0
LINE
8
0
10
124.000000
20
124.000000
30
-56.000000
11
93.000000
21
118.000000
31
-62.000000
0
LINE
8
0
10
93.000000
20
118.000000
30
-62.000000
11
88.500000
21
88.500000
31
-74.000000
0
3DFACE
   8
0
   10
93.000000
20
118.000000
30
-62.000000
11
124.000000
21
124.000000
31
-56.000000
12
130.000000
22
155.000000
32
-50.000000
13
97.500000
23
147.500000
33
-50.000000
0
LINE
8
0
10
93.000000
20
118.000000
30
-62.000000
11
124.000000
21
124.000000
31
-56.000000
0
LINE
8
0
10
124.000000
20
124.000000
30
-56.000000
11
130.000000
21
155.000000
31
-50.000000
0
LINE
8
0
10
130.000000
20
155.000000
30
-50.000000
11
97.500000
21
147.500000
31
-50.000000
0
LINE
8
0
10
97.500000
20
147.500000
30
-50.000000
11
93.000000
21
118.000000
31
-62.000000
0
3DFACE
   8
0
   10
97.500000
20
147.500000
30
-50.000000
11
130.000000
21
155.000000
31
-50.000000
12
136.000000
22
186.000000
32
-44.000000
13
102.000000
23
177.000000
33
-38.000000
0
LINE
8
0
10
97.500000
20
147.500000
30
-50.000000
11
130.000000
21
155.000000
31
-50.000000
0
LINE
8
0
10
130.000000
20
155.000000
30
-50.000000
11
136.000000
21
186.000000
31
-44.000000
0
LINE
8
0
10
136.000000
20
186.000000
30
-44.000000
11
102.000000
21
177.000000
31
-38.000000
0
LINE
8
0
10
102.000000
20
177.000000
30
-38.000000
11
97.500000
21
147.500000
31
-50.000000
0
3DFACE
   8
0
   10
102.000000
20
177.000000
30
-38.000000
11
136.000000
21
186.000000
31
-44.000000
12
142.000000
22
217.000000
32
-38.000000
13
106.500000
23
206.500000
33
-26.000000
0
LINE
8
0
10
102.000000
20
177.000000
30
-38.000000
11
136.000000
21
186.000000
31
-44.000000
0
LINE
8
0
10
136.000000
20
186.000000
30
-44.000000
11
142.000000
21
217.000000
31
-38.000000
0
LINE
8
0
10
142.000000
20
217.000000
30
-38.000000
11
106.500000
21
206.500000
31
-26.000000
0
LINE
8
0
10
106.500000
20
206.500000
30
-26.000000
11
102.000000
21
177.000000
31
-38.000000
0
3DFACE
   8
0
   10
106.500000
20
206.500000
30
-26.000000
11
142.000000
21
217.000000
31
-38.000000
12
148.000000
22
248.000000
32
-32.000000
13
111.000000
23
236.000000
33
-14.000000
0
LINE
8
0
10
106.500000
20
206.500000
30
-26.000000
11
142.000000
21
217.000000
31
-38.000000
0
LINE
8
0
10
142.000000
20
217.000000
30
-38.000000
11
148.000000
21
248.000000
31
-32.000000
0
LINE
8
0
10
148.000000
20
248.000000
30
-32.000000
11
111.000000
21
236.000000
31
-14.000000
0
LINE
8
0
10
111.000000
20
236.000000
30
-14.000000
11
106.500000
21
206.500000
31
-26.000000
0
3DFACE
   8
0
   10
111.000000
20
236.000000
30
-14.000000
11
148.000000
21
248.000000
31
-32.000000
12
154.000000
22
279.000000
32
-26.000000
13
115.500000
23
265.500000
33
-2.000000
0
LINE
8
0
10
111.000000
20
236.000000
30
-14.000000
11
148.000000
21
248.000000
31
-32.000000
0
LINE
8
0
10
148.000000
20
248.000000
30
-32.000000
11
154.000000
21
279.000000
31
-26.000000
0
LINE
8
0
10
154.000000
20
279.000000
30
-26.000000
11
115.500000
21
265.500000
31
-2.000000
0
LINE
8
0
10
115.500000
20
265.500000
30
-2.000000
11
111.000000
21
236.000000
31
-14.000000
0
3DFACE
   8
0
   10
115.500000
20
265.500000
30
-2.000000
11
154.000000
21
279.000000
31
-26.000000
12
160.000000
22
310.000000
32
-20.000000
13
120.000000
23
295.000000
33
10.000000
0
LINE
8
0
10
115.500000
20
265.500000
30
-2.000000
11
154.000000
21
279.000000
31
-26.000000
0
LINE
8
0
10
154.000000
20
279.000000
30
-26.000000
11
160.000000
21
310.000000
31
-20.000000
0
LINE
8
0
10
160.000000
20
310.000000
30
-20.000000
11
120.000000
21
295.000000
31
10.000000
0
LINE
8
0
10
120.000000
20
295.000000
30
10.000000
11
115.500000
21
265.500000
31
-2.000000
0
3DFACE
   8
0
   10
120.000000
20
295.000000
30
10.000000
11
160.000000
21
310.000000
31
-20.000000
12
166.000000
22
341.000000
32
-14.000000
13
124.500000
23
324.500000
33
22.000000
0
LINE
8
0
10
120.000000
20
295.000000
30
10.000000
11
160.000000
21
310.000000
31
-20.000000
0
LINE
8
0
10
160.000000
20
310.000000
30
-20.000000
11
166.000000
21
341.000000
31
-14.000000
0
LINE
8
0
10
166.000000
20
341.000000
30
-14.000000
11
124.500000
21
324.500000
31
22.000000
0
LINE
8
0
10
124.500000
20
324.500000
30
22.000000
11
120.000000
21
295.000000
31
10.000000
0
3DFACE
   8
0
   10
124.500000
20
324.500000
30
22.000000
11
166.000000
21
341.000000
31
-14.000000
12
172.000000
22
372.000000
32
-8.000000
13
129.000000
23
354.000000
33
34.000000
0
LINE
8
0
10
124.500000
20
324.500000
30
22.000000
11
166.000000
21
341.000000
31
-14.000000
0
LINE
8
0
10
166.000000
20
341.000000
30
-14.000000
11
172.000000
21
372.000000
31
-8.000000
0
LINE
8
0
10
172.000000
20
372.000000
30
-8.000000
11
129.000000
21
354.000000
31
34.000000
0
LINE
8
0
10
129.000000
20
354.000000
30
34.000000
11
124.500000
21
324.500000
31
22.000000
0
3DFACE
   8
0
   10
129.000000
20
354.000000
30
34.000000
11
172.000000
21
372.000000
31
-8.000000
12
178.000000
22
403.000000
32
-2.000000
13
133.500000
23
383.500000
33
46.000000
0
LINE
8
0
10
129.000000
20
354.000000
30
34.000000
11
172.000000
21
372.000000
31
-8.000000
0
LINE
8
0
10
172.000000
20
372.000000
30
-8.000000
11
178.000000
21
403.000000
31
-2.000000
0
LINE
8
0
10
178.000000
20
403.000000
30
-2.000000
11
133.500000
21
383.500000
31
46.000000
0
LINE
8
0
10
133.500000
20
383.500000
30
46.000000
11
129.000000
21
354.000000
31
34.000000
0
3DFACE
   8
0
   10
133.500000
20
383.500000
30
46.000000
11
178.000000
21
403.000000
31
-2.000000
12
184.000000
22
434.000000
32
4.000000
13
138.000000
23
413.000000
33
58.000000
0
LINE
8
0
10
133.500000
20
383.500000
30
46.000000
11
178.000000
21
403.000000
31
-2.000000
0
LINE
8
0
10
178.000000
20
403.000000
30
-2.000000
11
184.000000
21
434.000000
31
4.000000
0
LINE
8
0
10
184.000000
20
434.000000
30
4.000000
11
138.000000
21
413.000000
31
58.000000
0
LINE
8
0
10
138.000000
20
413.000000
30
58.000000
11
133.500000
21
383.500000
31
46.000000
0
3DFACE
   8
0
   10
138.000000
20
413.000000
30
58.000000
11
184.000000
21
434.000000
31
4.000000
12
190.000000
22
465.000000
32
10.000000
13
142.500000
23
442.500000
33
70.000000
0
LINE
8
0
10
138.000000
20
413.000000
30
58.000000
11
184.000000
21
434.000000
31
4.000000
0
LINE
8
0
10
184.000000
20
434.000000
30
4.000000
11
190.000000
21
465.000000
31
10.000000
0
LINE
8
0
10
190.000000
20
465.000000
30
10.000000
11
142.500000
21
442.500000
31
70.000000
0
LINE
8
0
10
142.500000
20
442.500000
30
70.000000
11
138.000000
21
413.000000
31
58.000000
0
3DFACE
   8
0
   10
100.000000
20
0.000000
30
-80.000000
11
125.000000
21
0.000000
31
-50.000000
12
132.500000
22
32.500000
32
-50.000000
13
106.000000
23
31.000000
33
-74.000000
0
LINE
8
0
10
100.000000
20
0.000000
30
-80.000000
11
125.000000
21
0.000000
31
-50.000000
0
LINE
8
0
10
125.000000
20
0.000000
30
-50.000000
11
132.500000
21
32.500000
31
-50.000000
0
LINE
8
0
10
132.500000
20
32.500000
30
-50.000000
11
106.000000
21
31.000000
31
-74.000000
0
LINE
8
0
10
106.000000
20
31.000000
30
-74.000000
11
100.000000
21
0.000000
31
-80.000000
0
3DFACE
   8
0
   10
106.000000
20
31.000000
30
-74.000000
11
132.500000
21
32.500000
31
-50.000000
12
140.000000
22
65.000000
32
-50.000000
13
112.000000
23
62.000000
33
-68.000000
0
LINE
8
0
10
106.000000
20
31.000000
30
-74.000000
11
132.500000
21
32.500000
31
-50.000000
0
LINE
8
0
10
132.500000
20
32.500000
30
-50.000000
11
140.000000
21
65.000000
31
-50.000000
0
LINE
8
0
10
140.000000
20
65.000000
30
-50.000000
11
112.000000
21
62.000000
31
-68.000000
0
LINE
8
0
10
112.000000
20
62.000000
30
-68.000000
11
106.000000
21
31.000000
31
-74.000000
0
3DFACE
   8
0
   10
112.000000
20
62.000000
30
-68.000000
11
140.000000
21
65.000000
31
-50.000000
12
147.500000
22
97.500000
32
-50.000000
13
118.000000
23
93.000000
33
-62.000000
0
LINE
8
0
10
112.000000
20
62.000000
30
-68.000000
11
140.000000
21
65.000000
31
-50.000000
0
LINE
8
0
10
140.000000
20
65.000000
30
-50.000000
11
147.500000
21
97.500000
31
-50.000000
0
LINE
8
0
10
147.500000
20
97.500000
30
-50.000000
11
118.000000
21
93.000000
31
-62.000000
0
LINE
8
0
10
118.000000
20
93.000000
30
-62.000000
11
112.000000
21
62.000000
31
-68.000000
0
3DFACE
   8
0
   10
118.000000
20
93.000000
30
-62.000000
11
147.500000
21
97.500000
31
-50.000000
12
155.000000
22
130.000000
32
-50.000000
13
124.000000
23
124.000000
33
-56.000000
0
LINE
8
0
10
118.000000
20
93.000000
30
-62.000000
11
147.500000
21
97.500000
31
-50.000000
0
LINE
8
0
10
147.500000
20
97.500000
30
-50.000000
11
155.000000
21
130.000000
31
-50.000000
0
LINE
8
0
10
155.000000
20
130.000000
30
-50.000000
11
124.000000
21
124.000000
31
-56.000000
0
LINE
8
0
10
124.000000
20
124.000000
30
-56.000000
11
118.000000
21
93.000000
31
-62.000000
0
3DFACE
   8
0
   10
124.000000
20
124.000000
30
-56.000000
11
155.000000
21
130.000000
31
-50.000000
12
162.500000
22
162.500000
32
-50.000000
13
130.000000
23
155.000000
33
-50.000000
0
LINE
8
0
10
124.000000
20
124.000000
30
-56.000000
11
155.000000
21
130.000000
31
-50.000000
0
LINE
8
0
10
155.000000
20
130.000000
30
-50.000000
11
162.500000
21
162.500000
31
-50.000000
0
LINE
8
0
10
162.500000
20
162.500000
30
-50.000000
11
130.000000
21
155.000000
31
-50.000000
0
LINE
8
0
10
130.000000
20
155.000000
30
-50.000000
11
124.000000
21
124.000000
31
-56.000000
0
3DFACE
   8
0
   10
130.000000
20
155.000000
30
-50.000000
11
162.500000
21
162.500000
31
-50.000000
12
170.000000
22
195.000000
32
-50.000000
13
136.000000
23
186.000000
33
-44.000000
0
LINE
8
0
10
130.000000
20
155.000000
30
-50.000000
11
162.500000
21
162.500000
31
-50.000000
0
LINE
8
0
10
162.500000
20
162.500000
30
-50.000000
11
170.000000
21
195.000000
31
-50.000000
0
LINE
8
0
10
170.000000
20
195.000000
30
-50.000000
11
136.000000
21
186.000000
31
-44.000000
0
LINE
8
0
10
136.000000
20
186.000000
30
-44.000000
11
130.000000
21
155.000000
31
-50.000000
0
3DFACE
   8
0
   10
136.000000
20
186.000000
30
-44.000000
11
170.000000
21
195.000000
31
-50.000000
12
177.500000
22
227.500000
32
-50.000000
13
142.000000
23
217.000000
33
-38.000000
0
LINE
8
0
10
136.000000
20
186.000000
30
-44.000000
11
170.000000
21
195.000000
31
-50.000000
0
LINE
8
0
10
170.000000
20
195.000000
30
-50.000000
11
177.500000
21
227.500000
31
-50.000000
0
LINE
8
0
10
177.500000
20
227.500000
30
-50.000000
11
142.000000
21
217.000000
31
-38.000000
0
LINE
8
0
10
142.000000
20
217.000000
30
-38.000000
11
136.000000
21
186.000000
31
-44.000000
0
3DFACE
   8
0
   10
142.000000
20
217.000000
30
-38.000000
11
177.500000
21
227.500000
31
-50.000000
12
185.000000
22
260.000000
32
-50.000000
13
148.000000
23
248.000000
33
-32.000000
0
LINE
8
0
10
142.000000
20
217.000000
30
-38.000000
11
177.500000
21
227.500000
31
-50.000000
0
LINE
8
0
10
177.500000
20
227.500000
30
-50.000000
11
185.000000
21
260.000000
31
-50.000000
0
LINE
8
0
10
185.000000
20
260.000000
30
-50.000000
11
148.000000
21
248.000000
31
-32.000000
0
LINE
8
0
10
148.000000
20
248.000000
30
-32.000000
11
142.000000
21
217.000000
31
-38.000000
0
3DFACE
   8
0
   10
148.000000
20
248.000000
30
-32.000000
11
185.000000
21
260.000000
31
-50.000000
12
192.500000
22
292.500000
32
-50.000000
13
154.000000
23
279.000000
33
-26.000000
0
LINE
8
0
10
148.000000
20
248.000000
30
-32.000000
11
185.000000
21
260.000000
31
-50.000000
0
LINE
8
0
10
185.000000
20
260.000000
30
-50.000000
11
192.500000
21
292.500000
31
-50.000000
0
LINE
8
0
10
192.500000
20
292.500000
30
-50.000000
11
154.000000
21
279.000000
31
-26.000000
0
LINE
8
0
10
154.000000
20
279.000000
30
-26.000000
11
148.000000
21
248.000000
31
-32.000000
0
3DFACE
   8
0
   10
154.000000
20
279.000000
30
-26.000000
11
192.500000
21
292.500000
31
-50.000000
12
200.000000
22
325.000000
32
-50.000000
13
160.000000
23
310.000000
33
-20.000000
0
LINE
8
0
10
154.000000
20
279.000000
30
-26.000000
11
192.500000
21
292.500000
31
-50.000000
0
LINE
8
0
10
192.500000
20
292.500000
30
-50.000000
11
200.000000
21
325.000000
31
-50.000000
0
LINE
8
0
10
200.000000
20
325.000000
30
-50.000000
11
160.000000
21
310.000000
31
-20.000000
0
LINE
8
0
10
160.000000
20
310.000000
30
-20.000000
11
154.000000
21
279.000000
31
-26.000000
0
3DFACE
   8
0
   10
160.000000
20
310.000000
30
-20.000000
11
200.000000
21
325.000000
31
-50.000000
12
207.500000
22
357.500000
32
-50.000000
13
166.000000
23
341.000000
33
-14.000000
0
LINE
8
0
10
160.000000
20
310.000000
30
-20.000000
11
200.000000
21
325.000000
31
-50.000000
0
LINE
8
0
10
200.000000
20
325.000000
30
-50.000000
11
207.500000
21
357.500000
31
-50.000000
0
LINE
8
0
10
207.500000
20
357.500000
30
-50.000000
11
166.000000
21
341.000000
31
-14.000000
0
LINE
8
0
10
166.000000
20
341.000000
30
-14.000000
11
160.000000
21
310.000000
31
-20.000000
0
3DFACE
   8
0
   10
166.000000
20
341.000000
30
-14.000000
11
207.500000
21
357.500000
31
-50.000000
12
215.000000
22
390.000000
32
-50.000000
13
172.000000
23
372.000000
33
-8.000000
0
LINE
8
0
10
166.000000
20
341.000000
30
-14.000000
11
207.500000
21
357.500000
31
-50.000000
0
LINE
8
0
10
207.500000
20
357.500000
30
-50.000000
11
215.000000
21
390.000000
31
-50.000000
0
LINE
8
0
10
215.000000
20
390.000000
30
-50.000000
11
172.000000
21
372.000000
31
-8.000000
0
LINE
8
0
10
172.000000
20
372.000000
30
-8.000000
11
166.000000
21
341.000000
31
-14.000000
0
3DFACE
   8
0
   10
172.000000
20
372.000000
30
-8.000000
11
215.000000
21
390.000000
31
-50.000000
12
222.500000
22
422.500000
32
-50.000000
13
178.000000
23
403.000000
33
-2.000000
0
LINE
8
0
10
172.000000
20
372.000000
30
-8.000000
11
215.000000
21
390.000000
31
-50.000000
0
LINE
8
0
10
215.000000
20
390.000000
30
-50.000000
11
222.500000
21
422.500000
31
-50.000000
0
LINE
8
0
10
222.500000
20
422.500000
30
-50.000000
11
178.000000
21
403.000000
31
-2.000000
0
LINE
8
0
10
178.000000
20
403.000000
30
-2.000000
11
172.000000
21
372.000000
31
-8.000000
0
3DFACE
   8
0
   10
178.000000
20
403.000000
30
-2.000000
11
222.500000
21
422.500000
31
-50.000000
12
230.000000
22
455.000000
32
-50.000000
13
184.000000
23
434.000000
33
4.000000
0
LINE
8
0
10
178.000000
20
403.000000
30
-2.000000
11
222.500000
21
422.500000
31
-50.000000
0
LINE
8
0
10
222.500000
20
422.500000
30
-50.000000
11
230.000000
21
455.000000
31
-50.000000
0
LINE
8
0
10
230.000000
20
455.000000
30
-50.000000
11
184.000000
21
434.000000
31
4.000000
0
LINE
8
0
10
184.000000
20
434.000000
30
4.000000
11
178.000000
21
403.000000
31
-2.000000
0
3DFACE
   8
0
   10
184.000000
20
434.000000
30
4.000000
11
230.000000
21
455.000000
31
-50.000000
12
237.500000
22
487.500000
32
-50.000000
13
190.000000
23
465.000000
33
10.000000
0
LINE
8
0
10
184.000000
20
434.000000
30
4.000000
11
230.000000
21
455.000000
31
-50.000000
0
LINE
8
0
10
230.000000
20
455.000000
30
-50.000000
11
237.500000
21
487.500000
31
-50.000000
0
LINE
8
0
10
237.500000
20
487.500000
30
-50.000000
11
190.000000
21
465.000000
31
10.000000
0
LINE
8
0
10
190.000000
20
465.000000
30
10.000000
11
184.000000
21
434.000000
31
4.000000
0
3DFACE
   8
0
   10
125.000000
20
0.000000
30
-50.000000
11
150.000000
21
0.000000
31
-20.000000
12
159.000000
22
34.000000
32
-26.000000
13
132.500000
23
32.500000
33
-50.000000
0
LINE
8
0
10
125.000000
20
0.000000
30
-50.000000
11
150.000000
21
0.000000
31
-20.000000
0
LINE
8
0
10
150.000000
20
0.000000
30
-20.000000
11
159.000000
21
34.000000
31
-26.000000
0
LINE
8
0
10
159.000000
20
34.000000
30
-26.000000
11
132.500000
21
32.500000
31
-50.000000
0
LINE
8
0
10
132.500000
20
32.500000
30
-50.000000
11
125.000000
21
0.000000
31
-50.000000
0
3DFACE
   8
0
   10
132.500000
20
32.500000
30
-50.000000
11
159.000000
21
34.000000
31
-26.000000
12
168.000000
22
68.000000
32
-32.000000
13
140.000000
23
65.000000
33
-50.000000
0
LINE
8
0
10
132.500000
20
32.500000
30
-50.000000
11
159.000000
21
34.000000
31
-26.000000
0
LINE
8
0
10
159.000000
20
34.000000
30
-26.000000
11
168.000000
21
68.000000
31
-32.000000
0
LINE
8
0
10
168.000000
20
68.000000
30
-32.000000
11
140.000000
21
65.000000
31
-50.000000
0
LINE
8
0
10
140.000000
20
65.000000
30
-50.000000
11
132.500000
21
32.500000
31
-50.000000
0
3DFACE
   8
0
   10
140.000000
20
65.000000
30
-50.000000
11
168.000000
21
68.000000
31
-32.000000
12
177.000000
22
102.000000
32
-38.000000
13
147.500000
23
97.500000
33
-50.000000
0
LINE
8
0
10
140.000000
20
65.000000
30
-50.000000
11
168.000000
21
68.000000
31
-32.000000
0
LINE
8
0
10
168.000000
20
68.000000
30
-32.000000
11
177.000000
21
102.000000
31
-38.000000
0
LINE
8
0
10
177.000000
20
102.000000
30
-38.000000
11
147.500000
21
97.500000
31
-50.000000
0
LINE
8
0
10
147.500000
20
97.500000
30
-50.000000
11
140.000000
21
65.000000
31
-50.000000
0
3DFACE
   8
0
   10
147.500000
20
97.500000
30
-50.000000
11
177.000000
21
102.000000
31
-38.000000
12
186.000000
22
136.000000
32
-44.000000
13
155.000000
23
130.000000
33
-50.000000
0
LINE
8
0
10
147.500000
20
97.500000
30
-50.000000
11
177.000000
21
102.000000
31
-38.000000
0
LINE
8
0
10
177.000000
20
102.000000
30
-38.000000
11
186.000000
21
136.000000
31
-44.000000
0
LINE
8
0
10
186.000000
20
136.000000
30
-44.000000
11
155.000000
21
130.000000
31
-50.000000
0
LINE
8
0
10
155.000000
20
130.000000
30
-50.000000
11
147.500000
21
97.500000
31
-50.000000
0
3DFACE
   8
0
   10
155.000000
20
130.000000
30
-50.000000
11
186.000000
21
136.000000
31
-44.000000
12
195.000000
22
170.000000
32
-50.000000
13
162.500000
23
162.500000
33
-50.000000
0
LINE
8
0
10
155.000000
20
130.000000
30
-50.000000
11
186.000000
21
136.000000
31
-44.000000
0
LINE
8
0
10
186.000000
20
136.000000
30
-44.000000
11
195.000000
21
170.000000
31
-50.000000
0
LINE
8
0
10
195.000000
20
170.000000
30
-50.000000
11
162.500000
21
162.500000
31
-50.000000
0
LINE
8
0
10
162.500000
20
162.500000
30
-50.000000
11
155.000000
21
130.000000
31
-50.000000
0
3DFACE
   8
0
   10
162.500000
20
162.500000
30
-50.000000
11
195.000000
21
170.000000
31
-50.000000
12
204.000000
22
204.000000
32
-56.000000
13
170.000000
23
195.000000
33
-50.000000
0
LINE
8
0
10
162.500000
20
162.500000
30
-50.000000
11
195.000000
21
170.000000
31
-50.000000
0
LINE
8
0
10
195.000000
20
170.000000
30
-50.000000
11
204.000000
21
204.000000
31
-56.000000
0
LINE
8
0
10
204.000000
20
204.000000
30
-56.000000
11
170.000000
21
195.000000
31
-50.000000
0
LINE
8
0
10
170.000000
20
195.000000
30
-50.000000
11
162.500000
21
162.500000
31
-50.000000
0
3DFACE
   8
0
   10
170.000000
20
195.000000
30
-50.000000
11
204.000000
21
204.000000
31
-56.000000
12
213.000000
22
238.000000
32
-62.000000
13
177.500000
23
227.500000
33
-50.000000
0
LINE
8
0
10
170.000000
20
195.000000
30
-50.000000
11
204.000000
21
204.000000
31
-56.000000
0
LINE
8
0
10
204.000000
20
204.000000
30
-56.000000
11
213.000000
21
238.000000
31
-62.000000
0
LINE
8
0
10
213.000000
20
238.000000
30
-62.000000
11
177.500000
21
227.500000
31
-50.000000
0
LINE
8
0
10
177.500000
20
227.500000
30
-50.000000
11
170.000000
21
195.000000
31
-50.000000
0
3DFACE
   8
0
   10
177.500000
20
227.500000
30
-50.000000
11
213.000000
21
238.000000
31
-62.000000
12
222.000000
22
272.000000
32
-68.000000
13
185.000000
23
260.000000
33
-50.000000
0
LINE
8
0
10
177.500000
20
227.500000
30
-50.000000
11
213.000000
21
238.000000
31
-62.000000
0
LINE
8
0
10
213.000000
20
238.000000
30
-62.000000
11
222.000000
21
272.000000
31
-68.000000
0
LINE
8
0
10
222.000000
20
272.000000
30
-68.000000
11
185.000000
21
260.000000
31
-50.000000
0
LINE
8
0
10
185.000000
20
260.000000
30
-50.000000
11
177.500000
21
227.500000
31
-50.000000
0
3DFACE
   8
0
   10
185.000000
20
260.000000
30
-50.000000
11
222.000000
21
272.000000
31
-68.000000
12
231.000000
22
306.000000
32
-74.000000
13
192.500000
23
292.500000
33
-50.000000
0
LINE
8
0
10
185.000000
20
260.000000
30
-50.000000
11
222.000000
21
272.000000
31
-68.000000
0
LINE
8
0
10
222.000000
20
272.000000
30
-68.000000
11
231.000000
21
306.000000
31
-74.000000
0
LINE
8
0
10
231.000000
20
306.000000
30
-74.000000
11
192.500000
21
292.500000
31
-50.000000
0
LINE
8
0
10
192.500000
20
292.500000
30
-50.000000
11
185.000000
21
260.000000
31
-50.000000
0
3DFACE
   8
0
   10
192.500000
20
292.500000
30
-50.000000
11
231.000000
21
306.000000
31
-74.000000
12
240.000000
22
340.000000
32
-80.000000
13
200.000000
23
325.000000
33
-50.000000
0
LINE
8
0
10
192.500000
20
292.500000
30
-50.000000
11
231.000000
21
306.000000
31
-74.000000
0
LINE
8
0
10
231.000000
20
306.000000
30
-74.000000
11
240.000000
21
340.000000
31
-80.000000
0
LINE
8
0
10
240.000000
20
340.000000
30
-80.000000
11
200.000000
21
325.000000
31
-50.000000
0
LINE
8
0
10
200.000000
20
325.000000
30
-50.000000
11
192.500000
21
292.500000
31
-50.000000
0
3DFACE
   8
0
   10
200.000000
20
325.000000
30
-50.000000
11
240.000000
21
340.000000
31
-80.000000
12
249.000000
22
374.000000
32
-86.000000
13
207.500000
23
357.500000
33
-50.000000
0
LINE
8
0
10
200.000000
20
325.000000
30
-50.000000
11
240.000000
21
340.000000
31
-80.000000
0
LINE
8
0
10
240.000000
20
340.000000
30
-80.000000
11
249.000000
21
374.000000
31
-86.000000
0
LINE
8
0
10
249.000000
20
374.000000
30
-86.000000
11
207.500000
21
357.500000
31
-50.000000
0
LINE
8
0
10
207.500000
20
357.500000
30
-50.000000
11
200.000000
21
325.000000
31
-50.000000
0
3DFACE
   8
0
   10
207.500000
20
357.500000
30
-50.000000
11
249.000000
21
374.000000
31
-86.000000
12
258.000000
22
408.000000
32
-92.000000
13
215.000000
23
390.000000
33
-50.000000
0
LINE
8
0
10
207.500000
20
357.500000
30
-50.000000
11
249.000000
21
374.000000
31
-86.000000
0
LINE
8
0
10
249.000000
20
374.000000
30
-86.000000
11
258.000000
21
408.000000
31
-92.000000
0
LINE
8
0
10
258.000000
20
408.000000
30
-92.000000
11
215.000000
21
390.000000
31
-50.000000
0
LINE
8
0
10
215.000000
20
390.000000
30
-50.000000
11
207.500000
21
357.500000
31
-50.000000
0
3DFACE
   8
0
   10
215.000000
20
390.000000
30
-50.000000
11
258.000000
21
408.000000
31
-92.000000
12
267.000000
22
442.000000
32
-98.000000
13
222.500000
23
422.500000
33
-50.000000
0
LINE
8
0
10
215.000000
20
390.000000
30
-50.000000
11
258.000000
21
408.000000
31
-92.000000
0
LINE
8
0
10
258.000000
20
408.000000
30
-92.000000
11
267.000000
21
442.000000
31
-98.000000
0
LINE
8
0
10
267.000000
20
442.000000
30
-98.000000
11
222.500000
21
422.500000
31
-50.000000
0
LINE
8
0
10
222.500000
20
422.500000
30
-50.000000
11
215.000000
21
390.000000
31
-50.000000
0
3DFACE
   8
0
   10
222.500000
20
422.500000
30
-50.000000
11
267.000000
21
442.000000
31
-98.000000
12
276.000000
22
476.000000
32
-104.000000
13
230.000000
23
455.000000
33
-50.000000
0
LINE
8
0
10
222.500000
20
422.500000
30
-50.000000
11
267.000000
21
442.000000
31
-98.000000
0
LINE
8
0
10
267.000000
20
442.000000
30
-98.000000
11
276.000000
21
476.000000
31
-104.000000
0
LINE
8
0
10
276.000000
20
476.000000
30
-104.000000
11
230.000000
21
455.000000
31
-50.000000
0
LINE
8
0
10
230.000000
20
455.000000
30
-50.000000
11
222.500000
21
422.500000
31
-50.000000
0
3DFACE
   8
0
   10
230.000000
20
455.000000
30
-50.000000
11
276.000000
21
476.000000
31
-104.000000
12
285.000000
22
510.000000
32
-110.000000
13
237.500000
23
487.500000
33
-50.000000
0
LINE
8
0
10
230.000000
20
455.000000
30
-50.000000
11
276.000000
21
476.000000
31
-104.000000
0
LINE
8
0
10
276.000000
20
476.000000
30
-104.000000
11
285.000000
21
510.000000
31
-110.000000
0
LINE
8
0
10
285.000000
20
510.000000
30
-110.000000
11
237.500000
21
487.500000
31
-50.000000
0
LINE
8
0
10
237.500000
20
487.500000
30
-50.000000
11
230.000000
21
455.000000
31
-50.000000
0
3DFACE
   8
0
   10
150.000000
20
0.000000
30
-20.000000
11
175.000000
21
0.000000
31
10.000000
12
185.500000
22
35.500000
32
-2.000000
13
159.000000
23
34.000000
33
-26.000000
0
LINE
8
0
10
150.000000
20
0.000000
30
-20.000000
11
175.000000
21
0.000000
31
10.000000
0
LINE
8
0
10
175.000000
20
0.000000
30
10.000000
11
185.500000
21
35.500000
31
-2.000000
0
LINE
8
0
10
185.500000
20
35.500000
30
-2.000000
11
159.000000
21
34.000000
31
-26.000000
0
LINE
8
0
10
159.000000
20
34.000000
30
-26.000000
11
150.000000
21
0.000000
31
-20.000000
0
3DFACE
   8
0
   10
159.000000
20
34.000000
30
-26.000000
11
185.500000
21
35.500000
31
-2.000000
12
196.000000
22
71.000000
32
-14.000000
13
168.000000
23
68.000000
33
-32.000000
0
LINE
8
0
10
159.000000
20
34.000000
30
-26.000000
11
185.500000
21
35.500000
31
-2.000000
0
LINE
8
0
10
185.500000
20
35.500000
30
-2.000000
11
196.000000
21
71.000000
31
-14.000000
0
LINE
8
0
10
196.000000
20
71.000000
30
-14.000000
11
168.000000
21
68.000000
31
-32.000000
0
LINE
8
0
10
168.000000
20
68.000000
30
-32.000000
11
159.000000
21
34.000000
31
-26.000000
0
3DFACE
   8
0
   10
168.000000
20
68.000000
30
-32.000000
11
196.000000
21
71.000000
31
-14.000000
12
206.500000
22
106.500000
32
-26.000000
13
177.000000
23
102.000000
33
-38.000000
0
LINE
8
0
10
168.000000
20
68.000000
30
-32.000000
11
196.000000
21
71.000000
31
-14.000000
0
LINE
8
0
10
196.000000
20
71.000000
30
-14.000000
11
206.500000
21
106.500000
31
-26.000000
0
LINE
8
0
10
206.500000
20
106.500000
30
-26.000000
11
177.000000
21
102.000000
31
-38.000000
0
LINE
8
0
10
177.000000
20
102.000000
30
-38.000000
11
168.000000
21
68.000000
31
-32.000000
0
3DFACE
   8
0
   10
177.000000
20
102.000000
30
-38.000000
11
206.500000
21
106.500000
31
-26.000000
12
217.000000
22
142.000000
32
-38.000000
13
186.000000
23
136.000000
33
-44.000000
0
LINE
8
0
10
177.000000
20
102.000000
30
-38.000000
11
206.500000
21
106.500000
31
-26.000000
0
LINE
8
0
10
206.500000
20
106.500000
30
-26.000000
11
217.000000
21
142.000000
31
-38.000000
0
LINE
8
0
10
217.000000
20
142.000000
30
-38.000000
11
186.000000
21
136.000000
31
-44.000000
0
LINE
8
0
10
186.000000
20
136.000000
30
-44.000000
11
177.000000
21
102.000000
31
-38.000000
0
3DFACE
   8
0
   10
186.000000
20
136.000000
30
-44.000000
11
217.000000
21
142.000000
31
-38.000000
12
227.500000
22
177.500000
32
-50.000000
13
195.000000
23
170.000000
33
-50.000000
0
LINE
8
0
10
186.000000
20
136.000000
30
-44.000000
11
217.000000
21
142.000000
31
-38.000000
0
LINE
8
0
10
217.000000
20
142.000000
30
-38.000000
11
227.500000
21
177.500000
31
-50.000000
0
LINE
8
0
10
227.500000
20
177.500000
30
-50.000000
11
195.000000
21
170.000000
31
-50.000000
0
LINE
8
0
10
195.000000
20
170.000000
30
-50.000000
11
186.000000
21
136.000000
31
-44.000000
0
3DFACE
   8
0
   10
195.000000
20
170.000000
30
-50.000000
11
227.500000
21
177.500000
31
-50.000000
12
238.000000
22
213.000000
32
-62.000000
13
204.000000
23
204.000000
33
-56.000000
0
LINE
8
0
10
195.000000
20
170.000000
30
-50.000000
11
227.500000
21
177.500000
31
-50.000000
0
LINE
8
0
10
227.500000
20
177.500000
30
-50.000000
11
238.000000
21
213.000000
31
-62.000000
0
LINE
8
0
10
238.000000
20
213.000000
30
-62.000000
11
204.000000
21
204.000000
31
-56.000000
0
LINE
8
0
10
204.000000
20
204.000000
30
-56.000000
11
195.000000
21
170.000000
31
-50.000000
0
3DFACE
   8
0
   10
204.000000
20
204.000000
30
-56.000000
11
238.000000
21
213.000000
31
-62.000000
12
248.500000
22
248.500000
32
-74.000000
13
213.000000
23
238.000000
33
-62.000000
0
LINE
8
0
10
204.000000
20
204.000000
30
-56.000000
11
238.000000
21
213.000000
31
-62.000000
0
LINE
8
0
10
238.000000
20
213.000000
30
-62.000000
11
248.500000
21
248.500000
31
-74.000000
0
LINE
8
0
10
248.500000
20
248.500000
30
-74.000000
11
213.000000
21
238.000000
31
-62.000000
0
LINE
8
0
10
213.000000
20
238.000000
30
-62.000000
11
204.000000
21
204.000000
31
-56.000000
0
3DFACE
   8
0
   10
213.000000
20
238.000000
30
-62.000000
11
248.500000
21
248.500000
31
-74.000000
12
259.000000
22
284.000000
32
-86.000000
13
222.000000
23
272.000000
33
-68.000000
0
LINE
8
0
10
213.000000
20
238.000000
30
-62.000000
11
248.500000
21
248.500000
31
-74.000000
0
LINE
8
0
10
248.500000
20
248.500000
30
-74.000000
11
259.000000
21
284.000000
31
-86.000000
0
LINE
8
0
10
259.000000
20
284.000000
30
-86.000000
11
222.000000
21
272.000000
31
-68.000000
0
LINE
8
0
10
222.000000
20
272.000000
30
-68.000000
11
213.000000
21
238.000000
31
-62.000000
0
3DFACE
   8
0
   10
222.000000
20
272.000000
30
-68.000000
11
259.000000
21
284.000000
31
-86.000000
12
269.500000
22
319.500000
32
-98.000000
13
231.000000
23
306.000000
33
-74.000000
0
LINE
8
0
10
222.000000
20
272.000000
30
-68.000000
11
259.000000
21
284.000000
31
-86.000000
0
LINE
8
0
10
259.000000
20
284.000000
30
-86.000000
11
269.500000
21
319.500000
31
-98.000000
0
LINE
8
0
10
269.500000
20
319.500000
30
-98.000000
11
231.000000
21
306.000000
31
-74.000000
0
LINE
8
0
10
231.000000
20
306.000000
30
-74.000000
11
222.000000
21
272.000000
31
-68.000000
0
3DFACE
   8
0
   10
231.000000
20
306.000000
30
-74.000000
11
269.500000
21
319.500000
31
-98.000000
12
280.000000
22
355.000000
32
-110.000000
13
240.000000
23
340.000000
33
-80.000000
0
LINE
8
0
10
231.000000
20
306.000000
30
-74.000000
11
269.500000
21
319.500000
31
-98.000000
0
LINE
8
0
10
269.500000
20
319.500000
30
-98.000000
11
280.000000
21
355.000000
31
-110.000000
0
LINE
8
0
10
280.000000
20
355.000000
30
-110.000000
11
240.000000
21
340.000000
31
-80.000000
0
LINE
8
0
10
240.000000
20
340.000000
30
-80.000000
11
231.000000
21
306.000000
31
-74.000000
0
3DFACE
   8
0
   10
240.000000
20
340.000000
30
-80.000000
11
280.000000
21
355.000000
31
-110.000000
12
290.500000
22
390.500000
32
-122.000000
13
249.000000
23
374.000000
33
-86.000000
0
LINE
8
0
10
240.000000
20
340.000000
30
-80.000000
11
280.000000
21
355.000000
31
-110.000000
0
LINE
8
0
10
280.000000
20
355.000000
30
-110.000000
11
290.500000
21
390.500000
31
-122.000000
0
LINE
8
0
10
290.500000
20
390.500000
30
-122.000000
11
249.000000
21
374.000000
31
-86.000000
0
LINE
8
0
10
249.000000
20
374.000000
30
-86.000000
11
240.000000
21
340.000000
31
-80.000000
0
3DFACE
   8
0
   10
249.000000
20
374.000000
30
-86.000000
11
290.500000
21
390.500000
31
-122.000000
12
301.000000
22
426.000000
32
-134.000000
13
258.000000
23
408.000000
33
-92.000000
0
LINE
8
0
10
249.000000
20
374.000000
30
-86.000000
11
290.500000
21
390.500000
31
-122.000000
0
LINE
8
0
10
290.500000
20
390.500000
30
-122.000000
11
301.000000
21
426.000000
31
-134.000000
0
LINE
8
0
10
301.000000
20
426.000000
30
-134.000000
11
258.000000
21
408.000000
31
-92.000000
0
LINE
8
0
10
258.000000
20
408.000000
30
-92.000000
11
249.000000
21
374.000000
31
-86.000000
0
3DFACE
   8
0
   10
258.000000
20
408.000000
30
-92.000000
11
301.000000
21
426.000000
31
-134.000000
12
311.500000
22
461.500000
32
-146.000000
13
267.000000
23
442.000000
33
-98.000000
0
LINE
8
0
10
258.000000
20
408.000000
30
-92.000000
11
301.000000
21
426.000000
31
-134.000000
0
LINE
8
0
10
301.000000
20
426.000000
30
-134.000000
11
311.500000
21
461.500000
31
-146.000000
0
LINE
8
0
10
311.500000
20
461.500000
30
-146.000000
11
267.000000
21
442.000000
31
-98.000000
0
LINE
8
0
10
267.000000
20
442.000000
30
-98.000000
11
258.000000
21
408.000000
31
-92.000000
0
3DFACE
   8
0
   10
267.000000
20
442.000000
30
-98.000000
11
311.500000
21
461.500000
31
-146.000000
12
322.000000
22
497.000000
32
-158.000000
13
276.000000
23
476.000000
33
-104.000000
0
LINE
8
0
10
267.000000
20
442.000000
30
-98.000000
11
311.500000
21
461.500000
31
-146.000000
0
LINE
8
0
10
311.500000
20
461.500000
30
-146.000000
11
322.000000
21
497.000000
31
-158.000000
0
LINE
8
0
10
322.000000
20
497.000000
30
-158.000000
11
276.000000
21
476.000000
31
-104.000000
0
LINE
8
0
10
276.000000
20
476.000000
30
-104.000000
11
267.000000
21
442.000000
31
-98.000000
0
3DFACE
   8
0
   10
276.000000
20
476.000000
30
-104.000000
11
322.000000
21
497.000000
31
-158.000000
12
332.500000
22
532.500000
32
-170.000000
13
285.000000
23
510.000000
33
-110.000000
0
LINE
8
0
10
276.000000
20
476.000000
30
-104.000000
11
322.000000
21
497.000000
31
-158.000000
0
LINE
8
0
10
322.000000
20
497.000000
30
-158.000000
11
332.500000
21
532.500000
31
-170.000000
0
LINE
8
0
10
332.500000
20
532.500000
30
-170.000000
11
285.000000
21
510.000000
31
-110.000000
0
LINE
8
0
10
285.000000
20
510.000000
30
-110.000000
11
276.000000
21
476.000000
31
-104.000000
0
3DFACE
   8
0
   10
175.000000
20
0.000000
30
10.000000
11
200.000000
21
0.000000
31
40.000000
12
212.000000
22
37.000000
32
22.000000
13
185.500000
23
35.500000
33
-2.000000
0
LINE
8
0
10
175.000000
20
0.000000
30
10.000000
11
200.000000
21
0.000000
31
40.000000
0
LINE
8
0
10
200.000000
20
0.000000
30
40.000000
11
212.000000
21
37.000000
31
22.000000
0
LINE
8
0
10
212.000000
20
37.000000
30
22.000000
11
185.500000
21
35.500000
31
-2.000000
0
LINE
8
0
10
185.500000
20
35.500000
30
-2.000000
11
175.000000
21
0.000000
31
10.000000
0
3DFACE
   8
0
   10
185.500000
20
35.500000
30
-2.000000
11
212.000000
21
37.000000
31
22.000000
12
224.000000
22
74.000000
32
4.000000
13
196.000000
23
71.000000
33
-14.000000
0
LINE
8
0
10
185.500000
20
35.500000
30
-2.000000
11
212.000000
21
37.000000
31
22.000000
0
LINE
8
0
10
212.000000
20
37.000000
30
22.000000
11
224.000000
21
74.000000
31
4.000000
0
LINE
8
0
10
224.000000
20
74.000000
30
4.000000
11
196.000000
21
71.000000
31
-14.000000
0
LINE
8
0
10
196.000000
20
71.000000
30
-14.000000
11
185.500000
21
35.500000
31
-2.000000
0
3DFACE
   8
0
   10
196.000000
20
71.000000
30
-14.000000
11
224.000000
21
74.000000
31
4.000000
12
236.000000
22
111.000000
32
-14.000000
13
206.500000
23
106.500000
33
-26.000000
0
LINE
8
0
10
196.000000
20
71.000000
30
-14.000000
11
224.000000
21
74.000000
31
4.000000
0
LINE
8
0
10
224.000000
20
74.000000
30
4.000000
11
236.000000
21
111.000000
31
-14.000000
0
LINE
8
0
10
236.000000
20
111.000000
30
-14.000000
11
206.500000
21
106.500000
31
-26.000000
0
LINE
8
0
10
206.500000
20
106.500000
30
-26.000000
11
196.000000
21
71.000000
31
-14.000000
0
3DFACE
   8
0
   10
206.500000
20
106.500000
30
-26.000000
11
236.000000
21
111.000000
31
-14.000000
12
248.000000
22
148.000000
32
-32.000000
13
217.000000
23
142.000000
33
-38.000000
0
LINE
8
0
10
206.500000
20
106.500000
30
-26.000000
11
236.000000
21
111.000000
31
-14.000000
0
LINE
8
0
10
236.000000
20
111.000000
30
-14.000000
11
248.000000
21
148.000000
31
-32.000000
0
LINE
8
0
10
248.000000
20
148.000000
30
-32.000000
11
217.000000
21
142.000000
31
-38.000000
0
LINE
8
0
10
217.000000
20
142.000000
30
-38.000000
11
206.500000
21
106.500000
31
-26.000000
0
3DFACE
   8
0
   10
217.000000
20
142.000000
30
-38.000000
11
248.000000
21
148.000000
31
-32.000000
12
260.000000
22
185.000000
32
-50.000000
13
227.500000
23
177.500000
33
-50.000000
0
LINE
8
0
10
217.000000
20
142.000000
30
-38.000000
11
248.000000
21
148.000000
31
-32.000000
0
LINE
8
0
10
248.000000
20
148.000000
30
-32.000000
11
260.000000
21
185.000000
31
-50.000000
0
LINE
8
0
10
260.000000
20
185.000000
30
-50.000000
11
227.500000
21
177.500000
31
-50.000000
0
LINE
8
0
10
227.500000
20
177.500000
30
-50.000000
11
217.000000
21
142.000000
31
-38.000000
0
3DFACE
   8
0
   10
227.500000
20
177.500000
30
-50.000000
11
260.000000
21
185.000000
31
-50.000000
12
272.000000
22
222.000000
32
-68.000000
13
238.000000
23
213.000000
33
-62.000000
0
LINE
8
0
10
227.500000
20
177.500000
30
-50.000000
11
260.000000
21
185.000000
31
-50.000000
0
LINE
8
0
10
260.000000
20
185.000000
30
-50.000000
11
272.000000
21
222.000000
31
-68.000000
0
LINE
8
0
10
272.000000
20
222.000000
30
-68.000000
11
238.000000
21
213.000000
31
-62.000000
0
LINE
8
0
10
238.000000
20
213.000000
30
-62.000000
11
227.500000
21
177.500000
31
-50.000000
0
3DFACE
   8
0
   10
238.000000
20
213.000000
30
-62.000000
11
272.000000
21
222.000000
31
-68.000000
12
284.000000
22
259.000000
32
-86.000000
13
248.500000
23
248.500000
33
-74.000000
0
LINE
8
0
10
238.000000
20
213.000000
30
-62.000000
11
272.000000
21
222.000000
31
-68.000000
0
LINE
8
0
10
272.000000
20
222.000000
30
-68.000000
11
284.000000
21
259.000000
31
-86.000000
0
LINE
8
0
10
284.000000
20
259.000000
30
-86.000000
11
248.500000
21
248.500000
31
-74.000000
0
LINE
8
0
10
248.500000
20
248.500000
30
-74.000000
11
238.000000
21
213.000000
31
-62.000000
0
3DFACE
   8
0
   10
248.500000
20
248.500000
30
-74.000000
11
284.000000
21
259.000000
31
-86.000000
12
296.000000
22
296.000000
32
-104.000000
13
259.000000
23
284.000000
33
-86.000000
0
LINE
8
0
10
248.500000
20
248.500000
30
-74.000000
11
284.000000
21
259.000000
31
-86.000000
0
LINE
8
0
10
284.000000
20
259.000000
30
-86.000000
11
296.000000
21
296.000000
31
-104.000000
0
LINE
8
0
10
296.000000
20
296.000000
30
-104.000000
11
259.000000
21
284.000000
31
-86.000000
0
LINE
8
0
10
259.000000
20
284.000000
30
-86.000000
11
248.500000
21
248.500000
31
-74.000000
0
3DFACE
   8
0
   10
259.000000
20
284.000000
30
-86.000000
11
296.000000
21
296.000000
31
-104.000000
12
308.000000
22
333.000000
32
-122.000000
13
269.500000
23
319.500000
33
-98.000000
0
LINE
8
0
10
259.000000
20
284.000000
30
-86.000000
11
296.000000
21
296.000000
31
-104.000000
0
LINE
8
0
10
296.000000
20
296.000000
30
-104.000000
11
308.000000
21
333.000000
31
-122.000000
0
LINE
8
0
10
308.000000
20
333.000000
30
-122.000000
11
269.500000
21
319.500000
31
-98.000000
0
LINE
8
0
10
269.500000
20
319.500000
30
-98.000000
11
259.000000
21
284.000000
31
-86.000000
0
3DFACE
   8
0
   10
269.500000
20
319.500000
30
-98.000000
11
308.000000
21
333.000000
31
-122.000000
12
320.000000
22
370.000000
32
-140.000000
13
280.000000
23
355.000000
33
-110.000000
0
LINE
8
0
10
269.500000
20
319.500000
30
-98.000000
11
308.000000
21
333.000000
31
-122.000000
0
LINE
8
0
10
308.000000
20
333.000000
30
-122.000000
11
320.000000
21
370.000000
31
-140.000000
0
LINE
8
0
10
320.000000
20
370.000000
30
-140.000000
11
280.000000
21
355.000000
31
-110.000000
0
LINE
8
0
10
280.000000
20
355.000000
30
-110.000000
11
269.500000
21
319.500000
31
-98.000000
0
3DFACE
   8
0
   10
280.000000
20
355.000000
30
-110.000000
11
320.000000
21
370.000000
31
-140.000000
12
332.000000
22
407.000000
32
-158.000000
13
290.500000
23
390.500000
33
-122.000000
0
LINE
8
0
10
280.000000
20
355.000000
30
-110.000000
11
320.000000
21
370.000000
31
-140.000000
0
LINE
8
0
10
320.000000
20
370.000000
30
-140.000000
11
332.000000
21
407.000000
31
-158.000000
0
LINE
8
0
10
332.000000
20
407.000000
30
-158.000000
11
290.500000
21
390.500000
31
-122.000000
0
LINE
8
0
10
290.500000
20
390.500000
30
-122.000000
11
280.000000
21
355.000000
31
-110.000000
0
3DFACE
   8
0
   10
290.500000
20
390.500000
30
-122.000000
11
332.000000
21
407.000000
31
-158.000000
12
344.000000
22
444.000000
32
-176.000000
13
301.000000
23
426.000000
33
-134.000000
0
LINE
8
0
10
290.500000
20
390.500000
30
-122.000000
11
332.000000
21
407.000000
31
-158.000000
0
LINE
8
0
10
332.000000
20
407.000000
30
-158.000000
11
344.000000
21
444.000000
31
-176.000000
0
LINE
8
0
10
344.000000
20
444.000000
30
-176.000000
11
301.000000
21
426.000000
31
-134.000000
0
LINE
8
0
10
301.000000
20
426.000000
30
-134.000000
11
290.500000
21
390.500000
31
-122.000000
0
3DFACE
   8
0
   10
301.000000
20
426.000000
30
-134.000000
11
344.000000
21
444.000000
31
-176.000000
12
356.000000
22
481.000000
32
-194.000000
13
311.500000
23
461.500000
33
-146.000000
0
LINE
8
0
10
301.000000
20
426.000000
30
-134.000000
11
344.000000
21
444.000000
31
-176.000000
0
LINE
8
0
10
344.000000
20
444.000000
30
-176.000000
11
356.000000
21
481.000000
31
-194.000000
0
LINE
8
0
10
356.000000
20
481.000000
30
-194.000000
11
311.500000
21
461.500000
31
-146.000000
0
LINE
8
0
10
311.500000
20
461.500000
30
-146.000000
11
301.000000
21
426.000000
31
-134.000000
0
3DFACE
   8
0
   10
311.500000
20
461.500000
30
-146.000000
11
356.000000
21
481.000000
31
-194.000000
12
368.000000
22
518.000000
32
-212.000000
13
322.000000
23
497.000000
33
-158.000000
0
LINE
8
0
10
311.500000
20
461.500000
30
-146.000000
11
356.000000
21
481.000000
31
-194.000000
0
LINE
8
0
10
356.000000
20
481.000000
30
-194.000000
11
368.000000
21
518.000000
31
-212.000000
0
LINE
8
0
10
368.000000
20
518.000000
30
-212.000000
11
322.000000
21
497.000000
31
-158.000000
0
LINE
8
0
10
322.000000
20
497.000000
30
-158.000000
11
311.500000
21
461.500000
31
-146.000000
0
3DFACE
   8
0
   10
322.000000
20
497.000000
30
-158.000000
11
368.000000
21
518.000000
31
-212.000000
12
380.000000
22
555.000000
32
-230.000000
13
332.500000
23
532.500000
33
-170.000000
0
LINE
8
0
10
322.000000
20
497.000000
30
-158.000000
11
368.000000
21
518.000000
31
-212.000000
0
LINE
8
0
10
368.000000
20
518.000000
30
-212.000000
11
380.000000
21
555.000000
31
-230.000000
0
LINE
8
0
10
380.000000
20
555.000000
30
-230.000000
11
332.500000
21
532.500000
31
-170.000000
0
LINE
8
0
10
332.500000
20
532.500000
30
-170.000000
11
322.000000
21
497.000000
31
-158.000000
0
3DFACE
   8
0
   10
200.000000
20
0.000000
30
40.000000
11
225.000000
21
0.000000
31
70.000000
12
238.500000
22
38.500000
32
46.000000
13
212.000000
23
37.000000
33
22.000000
0
LINE
8
0
10
200.000000
20
0.000000
30
40.000000
11
225.000000
21
0.000000
31
70.000000
0
LINE
8
0
10
225.000000
20
0.000000
30
70.000000
11
238.500000
21
38.500000
31
46.000000
0
LINE
8
0
10
238.500000
20
38.500000
30
46.000000
11
212.000000
21
37.000000
31
22.000000
0
LINE
8
0
10
212.000000
20
37.000000
30
22.000000
11
200.000000
21
0.000000
31
40.000000
0
3DFACE
   8
0
   10
212.000000
20
37.000000
30
22.000000
11
238.500000
21
38.500000
31
46.000000
12
252.000000
22
77.000000
32
22.000000
13
224.000000
23
74.000000
33
4.000000
0
LINE
8
0
10
212.000000
20
37.000000
30
22.000000
11
238.500000
21
38.500000
31
46.000000
0
LINE
8
0
10
238.500000
20
38.500000
30
46.000000
11
252.000000
21
77.000000
31
22.000000
0
LINE
8
0
10
252.000000
20
77.000000
30
22.000000
11
224.000000
21
74.000000
31
4.000000
0
LINE
8
0
10
224.000000
20
74.000000
30
4.000000
11
212.000000
21
37.000000
31
22.000000
0
3DFACE
   8
0
   10
224.000000
20
74.000000
30
4.000000
11
252.000000
21
77.000000
31
22.000000
12
265.500000
22
115.500000
32
-2.000000
13
236.000000
23
111.000000
33
-14.000000
0
LINE
8
0
10
224.000000
20
74.000000
30
4.000000
11
252.000000
21
77.000000
31
22.000000
0
LINE
8
0
10
252.000000
20
77.000000
30
22.000000
11
265.500000
21
115.500000
31
-2.000000
0
LINE
8
0
10
265.500000
20
115.500000
30
-2.000000
11
236.000000
21
111.000000
31
-14.000000
0
LINE
8
0
10
236.000000
20
111.000000
30
-14.000000
11
224.000000
21
74.000000
31
4.000000
0
3DFACE
   8
0
   10
236.000000
20
111.000000
30
-14.000000
11
265.500000
21
115.500000
31
-2.000000
12
279.000000
22
154.000000
32
-26.000000
13
248.000000
23
148.000000
33
-32.000000
0
LINE
8
0
10
236.000000
20
111.000000
30
-14.000000
11
265.500000
21
115.500000
31
-2.000000
0
LINE
8
0
10
265.500000
20
115.500000
30
-2.000000
11
279.000000
21
154.000000
31
-26.000000
0
LINE
8
0
10
279.000000
20
154.000000
30
-26.000000
11
248.000000
21
148.000000
31
-32.000000
0
LINE
8
0
10
248.000000
20
148.000000
30
-32.000000
11
236.000000
21
111.000000
31
-14.000000
0
3DFACE
   8
0
   10
248.000000
20
148.000000
30
-32.000000
11
279.000000
21
154.000000
31
-26.000000
12
292.500000
22
192.500000
32
-50.000000
13
260.000000
23
185.000000
33
-50.000000
0
LINE
8
0
10
248.000000
20
148.000000
30
-32.000000
11
279.000000
21
154.000000
31
-26.000000
0
LINE
8
0
10
279.000000
20
154.000000
30
-26.000000
11
292.500000
21
192.500000
31
-50.000000
0
LINE
8
0
10
292.500000
20
192.500000
30
-50.000000
11
260.000000
21
185.000000
31
-50.000000
0
LINE
8
0
10
260.000000
20
185.000000
30
-50.000000
11
248.000000
21
148.000000
31
-32.000000
0
3DFACE
   8
0
   10
260.000000
20
185.000000
30
-50.000000
11
292.500000
21
192.500000
31
-50.000000
12
306.000000
22
231.000000
32
-74.000000
13
272.000000
23
222.000000
33
-68.000000
0
LINE
8
0
10
260.000000
20
185.000000
30
-50.000000
11
292.500000
21
192.500000
31
-50.000000
0
LINE
8
0
10
292.500000
20
192.500000
30
-50.000000
11
306.000000
21
231.000000
31
-74.000000
0
LINE
8
0
10
306.000000
20
231.000000
30
-74.000000
11
272.000000
21
222.000000
31
-68.000000
0
LINE
8
0
10
272.000000
20
222.000000
30
-68.000000
11
260.000000
21
185.000000
31
-50.000000
0
3DFACE
   8
0
   10
272.000000
20
222.000000
30
-68.000000
11
306.000000
21
231.000000
31
-74.000000
12
319.500000
22
269.500000
32
-98.000000
13
284.000000
23
259.000000
33
-86.000000
0
LINE
8
0
10
272.000000
20
222.000000
30
-68.000000
11
306.000000
21
231.000000
31
-74.000000
0
LINE
8
0
10
306.000000
20
231.000000
30
-74.000000
11
319.500000
21
269.500000
31
-98.000000
0
LINE
8
0
10
319.500000
20
269.500000
30
-98.000000
11
284.000000
21
259.000000
31
-86.000000
0
LINE
8
0
10
284.000000
20
259.000000
30
-86.000000
11
272.000000
21
222.000000
31
-68.000000
0
3DFACE
   8
0
   10
284.000000
20
259.000000
30
-86.000000
11
319.500000
21
269.500000
31
-98.000000
12
333.000000
22
308.000000
32
-122.000000
13
296.000000
23
296.000000
33
-104.000000
0
LINE
8
0
10
284.000000
20
259.000000
30
-86.000000
11
319.500000
21
269.500000
31
-98.000000
0
LINE
8
0
10
319.500000
20
269.500000
30
-98.000000
11
333.000000
21
308.000000
31
-122.000000
0
LINE
8
0
10
333.000000
20
308.000000
30
-122.000000
11
296.000000
21
296.000000
31
-104.000000
0
LINE
8
0
10
296.000000
20
296.000000
30
-104.000000
11
284.000000
21
259.000000
31
-86.000000
0
3DFACE
   8
0
   10
296.000000
20
296.000000
30
-104.000000
11
333.000000
21
308.000000
31
-122.000000
12
346.500000
22
346.500000
32
-146.000000
13
308.000000
23
333.000000
33
-122.000000
0
LINE
8
0
10
296.000000
20
296.000000
30
-104.000000
11
333.000000
21
308.000000
31
-122.000000
0
LINE
8
0
10
333.000000
20
308.000000
30
-122.000000
11
346.500000
21
346.500000
31
-146.000000
0
LINE
8
0
10
346.500000
20
346.500000
30
-146.000000
11
308.000000
21
333.000000
31
-122.000000
0
LINE
8
0
10
308.000000
20
333.000000
30
-122.000000
11
296.000000
21
296.000000
31
-104.000000
0
3DFACE
   8
0
   10
308.000000
20
333.000000
30
-122.000000
11
346.500000
21
346.500000
31
-146.000000
12
360.000000
22
385.000000
32
-170.000000
13
320.000000
23
370.000000
33
-140.000000
0
LINE
8
0
10
308.000000
20
333.000000
30
-122.000000
11
346.500000
21
346.500000
31
-146.000000
0
LINE
8
0
10
346.500000
20
346.500000
30
-146.000000
11
360.000000
21
385.000000
31
-170.000000
0
LINE
8
0
10
360.000000
20
385.000000
30
-170.000000
11
320.000000
21
370.000000
31
-140.000000
0
LINE
8
0
10
320.000000
20
370.000000
30
-140.000000
11
308.000000
21
333.000000
31
-122.000000
0
3DFACE
   8
0
   10
320.000000
20
370.000000
30
-140.000000
11
360.000000
21
385.000000
31
-170.000000
12
373.500000
22
423.500000
32
-194.000000
13
332.000000
23
407.000000
33
-158.000000
0
LINE
8
0
10
320.000000
20
370.000000
30
-140.000000
11
360.000000
21
385.000000
31
-170.000000
0
LINE
8
0
10
360.000000
20
385.000000
30
-170.000000
11
373.500000
21
423.500000
31
-194.000000
0
LINE
8
0
10
373.500000
20
423.500000
30
-194.000000
11
332.000000
21
407.000000
31
-158.000000
0
LINE
8
0
10
332.000000
20
407.000000
30
-158.000000
11
320.000000
21
370.000000
31
-140.000000
0
3DFACE
   8
0
   10
332.000000
20
407.000000
30
-158.000000
11
373.500000
21
423.500000
31
-194.000000
12
387.000000
22
462.000000
32
-218.000000
13
344.000000
23
444.000000
33
-176.000000
0
LINE
8
0
10
332.000000
20
407.000000
30
-158.000000
11
373.500000
21
423.500000
31
-194.000000
0
LINE
8
0
10
373.500000
20
423.500000
30
-194.000000
11
387.000000
21
462.000000
31
-218.000000
0
LINE
8
0
10
387.000000
20
462.000000
30
-218.000000
11
344.000000
21
444.000000
31
-176.000000
0
LINE
8
0
10
344.000000
20
444.000000
30
-176.000000
11
332.000000
21
407.000000
31
-158.000000
0
3DFACE
   8
0
   10
344.000000
20
444.000000
30
-176.000000
11
387.000000
21
462.000000
31
-218.000000
12
400.500000
22
500.500000
32
-242.000000
13
356.000000
23
481.000000
33
-194.000000
0
LINE
8
0
10
344.000000
20
444.000000
30
-176.000000
11
387.000000
21
462.000000
31
-218.000000
0
LINE
8
0
10
387.000000
20
462.000000
30
-218.000000
11
400.500000
21
500.500000
31
-242.000000
0
LINE
8
0
10
400.500000
20
500.500000
30
-242.000000
11
356.000000
21
481.000000
31
-194.000000
0
LINE
8
0
10
356.000000
20
481.000000
30
-194.000000
11
344.000000
21
444.000000
31
-176.000000
0
3DFACE
   8
0
   10
356.000000
20
481.000000
30
-194.000000
11
400.500000
21
500.500000
31
-242.000000
12
414.000000
22
539.000000
32
-266.000000
13
368.000000
23
518.000000
33
-212.000000
0
LINE
8
0
10
356.000000
20
481.000000
30
-194.000000
11
400.500000
21
500.500000
31
-242.000000
0
LINE
8
0
10
400.500000
20
500.500000
30
-242.000000
11
414.000000
21
539.000000
31
-266.000000
0
LINE
8
0
10
414.000000
20
539.000000
30
-266.000000
11
368.000000
21
518.000000
31
-212.000000
0
LINE
8
0
10
368.000000
20
518.000000
30
-212.000000
11
356.000000
21
481.000000
31
-194.000000
0
3DFACE
   8
0
   10
368.000000
20
518.000000
30
-212.000000
11
414.000000
21
539.000000
31
-266.000000
12
427.500000
22
577.500000
32
-290.000000
13
380.000000
23
555.000000
33
-230.000000
0
LINE
8
0
10
368.000000
20
518.000000
30
-212.000000
11
414.000000
21
539.000000
31
-266.000000
0
LINE
8
0
10
414.000000
20
539.000000
30
-266.000000
11
427.500000
21
577.500000
31
-290.000000
0
LINE
8
0
10
427.500000
20
577.500000
30
-290.000000
11
380.000000
21
555.000000
31
-230.000000
0
LINE
8
0
10
380.000000
20
555.000000
30
-230.000000
11
368.000000
21
518.000000
31
-212.000000
0
3DFACE
   8
0
   10
225.000000
20
0.000000
30
70.000000
11
250.000000
21
0.000000
31
100.000000
12
265.000000
22
40.000000
32
70.000000
13
238.500000
23
38.500000
33
46.000000
0
LINE
8
0
10
225.000000
20
0.000000
30
70.000000
11
250.000000
21
0.000000
31
100.000000
0
LINE
8
0
10
250.000000
20
0.000000
30
100.000000
11
265.000000
21
40.000000
31
70.000000
0
LINE
8
0
10
265.000000
20
40.000000
30
70.000000
11
238.500000
21
38.500000
31
46.000000
0
LINE
8
0
10
238.500000
20
38.500000
30
46.000000
11
225.000000
21
0.000000
31
70.000000
0
3DFACE
   8
0
   10
238.500000
20
38.500000
30
46.000000
11
265.000000
21
40.000000
31
70.000000
12
280.000000
22
80.000000
32
40.000000
13
252.000000
23
77.000000
33
22.000000
0
LINE
8
0
10
238.500000
20
38.500000
30
46.000000
11
265.000000
21
40.000000
31
70.000000
0
LINE
8
0
10
265.000000
20
40.000000
30
70.000000
11
280.000000
21
80.000000
31
40.000000
0
LINE
8
0
10
280.000000
20
80.000000
30
40.000000
11
252.000000
21
77.000000
31
22.000000
0
LINE
8
0
10
252.000000
20
77.000000
30
22.000000
11
238.500000
21
38.500000
31
46.000000
0
3DFACE
   8
0
   10
252.000000
20
77.000000
30
22.000000
11
280.000000
21
80.000000
31
40.000000
12
295.000000
22
120.000000
32
10.000000
13
265.500000
23
115.500000
33
-2.000000
0
LINE
8
0
10
252.000000
20
77.000000
30
22.000000
11
280.000000
21
80.000000
31
40.000000
0
LINE
8
0
10
280.000000
20
80.000000
30
40.000000
11
295.000000
21
120.000000
31
10.000000
0
LINE
8
0
10
295.000000
20
120.000000
30
10.000000
11
265.500000
21
115.500000
31
-2.000000
0
LINE
8
0
10
265.500000
20
115.500000
30
-2.000000
11
252.000000
21
77.000000
31
22.000000
0
3DFACE
   8
0
   10
265.500000
20
115.500000
30
-2.000000
11
295.000000
21
120.000000
31
10.000000
12
310.000000
22
160.000000
32
-20.000000
13
279.000000
23
154.000000
33
-26.000000
0
LINE
8
0
10
265.500000
20
115.500000
30
-2.000000
11
295.000000
21
120.000000
31
10.000000
0
LINE
8
0
10
295.000000
20
120.000000
30
10.000000
11
310.000000
21
160.000000
31
-20.000000
0
LINE
8
0
10
310.000000
20
160.000000
30
-20.000000
11
279.000000
21
154.000000
31
-26.000000
0
LINE
8
0
10
279.000000
20
154.000000
30
-26.000000
11
265.500000
21
115.500000
31
-2.000000
0
3DFACE
   8
0
   10
279.000000
20
154.000000
30
-26.000000
11
310.000000
21
160.000000
31
-20.000000
12
325.000000
22
200.000000
32
-50.000000
13
292.500000
23
192.500000
33
-50.000000
0
LINE
8
0
10
279.000000
20
154.000000
30
-26.000000
11
310.000000
21
160.000000
31
-20.000000
0
LINE
8
0
10
310.000000
20
160.000000
30
-20.000000
11
325.000000
21
200.000000
31
-50.000000
0
LINE
8
0
10
325.000000
20
200.000000
30
-50.000000
11
292.500000
21
192.500000
31
-50.000000
0
LINE
8
0
10
292.500000
20
192.500000
30
-50.000000
11
279.000000
21
154.000000
31
-26.000000
0
3DFACE
   8
0
   10
292.500000
20
192.500000
30
-50.000000
11
325.000000
21
200.000000
31
-50.000000
12
340.000000
22
240.000000
32
-80.000000
13
306.000000
23
231.000000
33
-74.000000
0
LINE
8
0
10
292.500000
20
192.500000
30
-50.000000
11
325.000000
21
200.000000
31
-50.000000
0
LINE
8
0
10
325.000000
20
200.000000
30
-50.000000
11
340.000000
21
240.000000
31
-80.000000
0
LINE
8
0
10
340.000000
20
240.000000
30
-80.000000
11
306.000000
21
231.000000
31
-74.000000
0
LINE
8
0
10
306.000000
20
231.000000
30
-74.000000
11
292.500000
21
192.500000
31
-50.000000
0
3DFACE
   8
0
   10
306.000000
20
231.000000
30
-74.000000
11
340.000000
21
240.000000
31
-80.000000
12
355.000000
22
280.000000
32
-110.000000
13
319.500000
23
269.500000
33
-98.000000
0
LINE
8
0
10
306.000000
20
231.000000
30
-74.000000
11
340.000000
21
240.000000
31
-80.000000
0
LINE
8
0
10
340.000000
20
240.000000
30
-80.000000
11
355.000000
21
280.000000
31
-110.000000
0
LINE
8
0
10
355.000000
20
280.000000
30
-110.000000
11
319.500000
21
269.500000
31
-98.000000
0
LINE
8
0
10
319.500000
20
269.500000
30
-98.000000
11
306.000000
21
231.000000
31
-74.000000
0
3DFACE
   8
0
   10
319.500000
20
269.500000
30
-98.000000
11
355.000000
21
280.000000
31
-110.000000
12
370.000000
22
320.000000
32
-140.000000
13
333.000000
23
308.000000
33
-122.000000
0
LINE
8
0
10
319.500000
20
269.500000
30
-98.000000
11
355.000000
21
280.000000
31
-110.000000
0
LINE
8
0
10
355.000000
20
280.000000
30
-110.000000
11
370.000000
21
320.000000
31
-140.000000
0
LINE
8
0
10
370.000000
20
320.000000
30
-140.000000
11
333.000000
21
308.000000
31
-122.000000
0
LINE
8
0
10
333.000000
20
308.000000
30
-122.000000
11
319.500000
21
269.500000
31
-98.000000
0
3DFACE
   8
0
   10
333.000000
20
308.000000
30
-122.000000
11
370.000000
21
320.000000
31
-140.000000
12
385.000000
22
360.000000
32
-170.000000
13
346.500000
23
346.500000
33
-146.000000
0
LINE
8
0
10
333.000000
20
308.000000
30
-122.000000
11
370.000000
21
320.000000
31
-140.000000
0
LINE
8
0
10
370.000000
20
320.000000
30
-140.000000
11
385.000000
21
360.000000
31
-170.000000
0
LINE
8
0
10
385.000000
20
360.000000
30
-170.000000
11
346.500000
21
346.500000
31
-146.000000
0
LINE
8
0
10
346.500000
20
346.500000
30
-146.000000
11
333.000000
21
308.000000
31
-122.000000
0
3DFACE
   8
0
   10
346.500000
20
346.500000
30
-146.000000
11
385.000000
21
360.000000
31
-170.000000
12
400.000000
22
400.000000
32
-200.000000
13
360.000000
23
385.000000
33
-170.000000
0
LINE
8
0
10
346.500000
20
346.500000
30
-146.000000
11
385.000000
21
360.000000
31
-170.000000
0
LINE
8
0
10
385.000000
20
360.000000
30
-170.000000
11
400.000000
21
400.000000
31
-200.000000
0
LINE
8
0
10
400.000000
20
400.000000
30
-200.000000
11
360.000000
21
385.000000
31
-170.000000
0
LINE
8
0
10
360.000000
20
385.000000
30
-170.000000
11
346.500000
21
346.500000
31
-146.000000
0
3DFACE
   8
0
   10
360.000000
20
385.000000
30
-170.000000
11
400.000000
21
400.000000
31
-200.000000
12
415.000000
22
440.000000
32
-230.000000
13
373.500000
23
423.500000
33
-194.000000
0
LINE
8
0
10
360.000000
20
385.000000
30
-170.000000
11
400.000000
21
400.000000
31
-200.000000
0
LINE
8
0
10
400.000000
20
400.000000
30
-200.000000
11
415.000000
21
440.000000
31
-230.000000
0
LINE
8
0
10
415.000000
20
440.000000
30
-230.000000
11
373.500000
21
423.500000
31
-194.000000
0
LINE
8
0
10
373.500000
20
423.500000
30
-194.000000
11
360.000000
21
385.000000
31
-170.000000
0
3DFACE
   8
0
   10
373.500000
20
423.500000
30
-194.000000
11
415.000000
21
440.000000
31
-230.000000
12
430.000000
22
480.000000
32
-260.000000
13
387.000000
23
462.000000
33
-218.000000
0
LINE
8
0
10
373.500000
20
423.500000
30
-194.000000
11
415.000000
21
440.000000
31
-230.000000
0
LINE
8
0
10
415.000000
20
440.000000
30
-230.000000
11
430.000000
21
480.000000
31
-260.000000
0
LINE
8
0
10
430.000000
20
480.000000
30
-260.000000
11
387.000000
21
462.000000
31
-218.000000
0
LINE
8
0
10
387.000000
20
462.000000
30
-218.000000
11
373.500000
21
423.500000
31
-194.000000
0
3DFACE
   8
0
   10
387.000000
20
462.000000
30
-218.000000
11
430.000000
21
480.000000
31
-260.000000
12
445.000000
22
520.000000
32
-290.000000
13
400.500000
23
500.500000
33
-242.000000
0
LINE
8
0
10
387.000000
20
462.000000
30
-218.000000
11
430.000000
21
480.000000
31
-260.000000
0
LINE
8
0
10
430.000000
20
480.000000
30
-260.000000
11
445.000000
21
520.000000
31
-290.000000
0
LINE
8
0
10
445.000000
20
520.000000
30
-290.000000
11
400.500000
21
500.500000
31
-242.000000
0
LINE
8
0
10
400.500000
20
500.500000
30
-242.000000
11
387.000000
21
462.000000
31
-218.000000
0
3DFACE
   8
0
   10
400.500000
20
500.500000
30
-242.000000
11
445.000000
21
520.000000
31
-290.000000
12
460.000000
22
560.000000
32
-320.000000
13
414.000000
23
539.000000
33
-266.000000
0
LINE
8
0
10
400.500000
20
500.500000
30
-242.000000
11
445.000000
21
520.000000
31
-290.000000
0
LINE
8
0
10
445.000000
20
520.000000
30
-290.000000
11
460.000000
21
560.000000
31
-320.000000
0
LINE
8
0
10
460.000000
20
560.000000
30
-320.000000
11
414.000000
21
539.000000
31
-266.000000
0
LINE
8
0
10
414.000000
20
539.000000
30
-266.000000
11
400.500000
21
500.500000
31
-242.000000
0
3DFACE
   8
0
   10
414.000000
20
539.000000
30
-266.000000
11
460.000000
21
560.000000
31
-320.000000
12
475.000000
22
600.000000
32
-350.000000
13
427.500000
23
577.500000
33
-290.000000
0
LINE
8
0
10
414.000000
20
539.000000
30
-266.000000
11
460.000000
21
560.000000
31
-320.000000
0
LINE
8
0
10
460.000000
20
560.000000
30
-320.000000
11
475.000000
21
600.000000
31
-350.000000
0
LINE
8
0
10
475.000000
20
600.000000
30
-350.000000
11
427.500000
21
577.500000
31
-290.000000
0
LINE
8
0
10
427.500000
20
577.500000
30
-290.000000
11
414.000000
21
539.000000
31
-266.000000
  0
ENDSEC
  0
EOF
